<?xml version="1.0" encoding="UTF-8" standalone="no"?>
<!-- Created with Inkscape (http://www.inkscape.org/) -->

<svg
   width="21.695831mm"
   height="21.695801mm"
   viewBox="0 0 21.695831 21.695801"
   version="1.1"
   id="svg1"
   inkscape:version="1.4 (e7c3feb1, 2024-10-09)"
   sodipodi:docname="open-link-icon.svg"
   xml:space="preserve"
   xmlns:inkscape="http://www.inkscape.org/namespaces/inkscape"
   xmlns:sodipodi="http://sodipodi.sourceforge.net/DTD/sodipodi-0.dtd"
   xmlns="http://www.w3.org/2000/svg"
   xmlns:svg="http://www.w3.org/2000/svg"><sodipodi:namedview
     id="namedview1"
     pagecolor="#ffffff"
     bordercolor="#000000"
     borderopacity="0.25"
     inkscape:showpageshadow="2"
     inkscape:pageopacity="0.0"
     inkscape:pagecheckerboard="0"
     inkscape:deskcolor="#d1d1d1"
     inkscape:document-units="mm"
     inkscape:zoom="3.3308523"
     inkscape:cx="20.265083"
     inkscape:cy="47.885641"
     inkscape:window-width="1512"
     inkscape:window-height="856"
     inkscape:window-x="0"
     inkscape:window-y="38"
     inkscape:window-maximized="0"
     inkscape:current-layer="layer1" /><defs
     id="defs1" /><g
     inkscape:label="Layer 1"
     inkscape:groupmode="layer"
     id="layer1"
     transform="translate(12.818755,-20.800932)"><path
      fill="currentColor" 
      stroke="currentColor"
       d="m -11.923506,41.40578 c -0.369603,-0.40215 -0.418644,-1.314775 -0.418644,-7.790721 0,-6.235806 0.05902,-7.418185 0.393782,-7.888804 0.388388,-0.546007 0.477234,-0.553591 6.4859766,-0.553591 h 6.09219474 l -0.85764276,0.869142 -0.85764298,0.869142 -4.742978,0.0026 -4.7429776,0.0026 v 6.600726 6.600725 h 6.7034085 6.7034085 v -4.562735 -4.562807 l 0.8851583,-0.979311 0.8851583,-0.979312 1.979e-4,6.001682 c 1.807e-4,5.498141 -0.038616,6.036267 -0.4623989,6.413912 -0.4088229,0.364313 -1.3452042,0.412231 -8.0554764,0.412231 -7.0346032,0 -7.6236612,-0.0335 -8.0115242,-0.455511 z m 7.8446775,-7.681232 c -0.5279211,-0.519834 0.2272671,-1.468065 4.51109928,-5.664231 2.57385562,-2.521183 4.67973762,-4.645739 4.67973762,-4.721235 0,-0.07549 -0.8133521,-0.170197 -1.8074492,-0.210448 C 1.9493918,23.073764 1.43085,22.9516 1.2323173,22.640433 1.0406349,22.340001 1.0593298,22.116491 1.3000258,21.83091 c 0.2700692,-0.320429 0.9109128,-0.394505 3.412924,-0.394505 2.0586036,0 3.1811117,0.09915 3.3839705,0.298901 0.2028588,0.199751 0.3035506,1.305064 0.3035506,3.332134 0,2.463685 -0.075233,3.094712 -0.4006418,3.360644 -0.2900252,0.237012 -0.5170112,0.255421 -0.8221164,0.06667 C 6.8600315,28.298229 6.737724,27.785399 6.6810562,26.412298 l -0.075185,-1.821722 -4.7461803,4.650012 c -4.4475591,4.357452 -5.3641479,5.049533 -5.9385194,4.48396 z"
       id="path1" /></g></svg>
