<?xml version="1.0" encoding="UTF-8" standalone="no"?>
<!-- Created with Inkscape (http://www.inkscape.org/) -->

<svg
   width="32.128204mm"
   height="31.598345mm"
   viewBox="0 0 32.128204 31.598346"
   version="1.1"
   id="svg1"
   inkscape:version="1.4 (e7c3feb1, 2024-10-09)"
   sodipodi:docname="search-icon.svg"
   xml:space="preserve"
   xmlns:inkscape="http://www.inkscape.org/namespaces/inkscape"
   xmlns:sodipodi="http://sodipodi.sourceforge.net/DTD/sodipodi-0.dtd"
   xmlns="http://www.w3.org/2000/svg"
   xmlns:svg="http://www.w3.org/2000/svg"><sodipodi:namedview
     id="namedview1"
     pagecolor="#ffffff"
     bordercolor="#000000"
     borderopacity="0.25"
     inkscape:showpageshadow="2"
     inkscape:pageopacity="0.0"
     inkscape:pagecheckerboard="0"
     inkscape:deskcolor="#d1d1d1"
     inkscape:document-units="mm"
     inkscape:zoom="1.5552473"
     inkscape:cx="4.500892"
     inkscape:cy="90.339333"
     inkscape:window-width="1512"
     inkscape:window-height="856"
     inkscape:window-x="0"
     inkscape:window-y="38"
     inkscape:window-maximized="0"
     inkscape:current-layer="layer1" /><defs
     id="defs1" /><g
     inkscape:label="Layer 1"
     inkscape:groupmode="layer"
     id="layer1"
     transform="translate(72.679275,-43.25833)"><path
      fill="currentColor" 
      stroke="currentColor"
       d="m -42.900767,74.284576 c -0.144519,-0.02721 -0.262762,-0.122984 -0.262762,-0.212817 0,-0.08983 -0.105105,-0.163333 -0.233566,-0.163333 -0.15571,0 -0.233566,-0.07612 -0.233566,-0.228367 0,-0.126869 -0.07785,-0.228366 -0.175174,-0.228366 -0.09635,0 -0.175174,-0.07707 -0.175174,-0.171274 0,-0.09515 -0.103806,-0.171275 -0.233566,-0.171275 -0.15571,0 -0.233565,-0.07612 -0.233565,-0.228365 0,-0.152245 -0.07785,-0.228368 -0.233566,-0.228368 -0.155711,0 -0.233567,-0.07612 -0.233567,-0.228365 0,-0.126871 -0.07785,-0.228366 -0.175173,-0.228366 -0.09635,0 -0.175175,-0.07707 -0.175175,-0.171275 0,-0.09515 -0.103806,-0.171275 -0.233565,-0.171275 -0.15571,0 -0.233566,-0.07612 -0.233566,-0.228366 0,-0.152244 -0.07785,-0.228366 -0.233565,-0.228366 -0.15571,0 -0.233566,-0.07612 -0.233566,-0.228366 0,-0.12687 -0.07785,-0.228367 -0.175174,-0.228367 -0.09634,0 -0.175175,-0.07707 -0.175175,-0.171274 0,-0.09515 -0.103806,-0.171275 -0.233565,-0.171275 -0.155711,0 -0.233565,-0.07612 -0.233565,-0.228366 0,-0.125601 -0.0727,-0.228366 -0.161554,-0.228366 -0.08885,0 -0.189039,-0.102765 -0.222632,-0.228366 -0.03359,-0.125601 -0.144828,-0.228366 -0.247187,-0.228366 -0.102359,0 -0.186107,-0.07707 -0.186107,-0.171275 0,-0.09515 -0.103807,-0.171275 -0.233566,-0.171275 -0.15571,0 -0.233565,-0.07612 -0.233565,-0.228366 0,-0.125601 -0.07269,-0.228365 -0.161554,-0.228365 -0.08885,0 -0.18904,-0.102765 -0.222633,-0.228367 -0.03359,-0.125602 -0.144827,-0.228366 -0.247186,-0.228366 -0.102359,0 -0.186107,-0.07707 -0.186107,-0.171275 0,-0.09515 -0.103807,-0.171274 -0.233566,-0.171274 -0.155711,0 -0.233566,-0.07612 -0.233566,-0.228366 0,-0.126871 -0.07785,-0.228367 -0.175174,-0.228367 -0.09635,0 -0.175174,-0.07707 -0.175174,-0.171275 0,-0.09515 -0.103807,-0.171274 -0.233565,-0.171274 -0.155711,0 -0.233566,-0.07612 -0.233566,-0.228366 0,-0.200685 -0.07785,-0.228366 -0.642306,-0.228366 -0.56445,0 -0.642304,0.02768 -0.642304,0.228366 0,0.152244 -0.07785,0.228366 -0.233566,0.228366 -0.129759,0 -0.233567,0.07612 -0.233567,0.171274 0,0.119621 -0.12327,0.171275 -0.408739,0.171275 -0.330884,0 -0.40874,0.04351 -0.40874,0.228367 0,0.184868 -0.07785,0.228366 -0.408739,0.228366 -0.268955,0 -0.408741,0.0537 -0.408741,0.157001 0,0.156557 -0.481139,0.299731 -1.007252,0.299731 -0.158211,0 -0.27736,0.06781 -0.27736,0.157859 0,0.113193 -0.247833,0.180567 -0.87587,0.238109 -0.638541,0.0585 -0.875871,0.124018 -0.875871,0.241781 0,0.133272 -0.367766,0.161532 -2.102091,0.161532 -1.734324,0 -2.102091,-0.02826 -2.102091,-0.161532 0,-0.117763 -0.237329,-0.183277 -0.87587,-0.241781 -0.628039,-0.05754 -0.875872,-0.124916 -0.875872,-0.238109 0,-0.09571 -0.126437,-0.158473 -0.321153,-0.159418 -0.500064,-0.0024 -0.846676,-0.124102 -0.846676,-0.297216 0,-0.108162 -0.147262,-0.157957 -0.467131,-0.157957 -0.389275,0 -0.46713,-0.03805 -0.46713,-0.228366 0,-0.184869 -0.07785,-0.228367 -0.408741,-0.228367 -0.285468,0 -0.40874,-0.05165 -0.40874,-0.171275 0,-0.09515 -0.103806,-0.171274 -0.233565,-0.171274 -0.15571,0 -0.233566,-0.07612 -0.233566,-0.228366 0,-0.184869 -0.07785,-0.228366 -0.40874,-0.228366 -0.330884,0 -0.408739,-0.0435 -0.408739,-0.228367 0,-0.152244 -0.07785,-0.228365 -0.233566,-0.228365 -0.129759,0 -0.233565,-0.07612 -0.233565,-0.171275 0,-0.0942 -0.07883,-0.171275 -0.175174,-0.171275 -0.09732,0 -0.175174,-0.101497 -0.175174,-0.228365 0,-0.152245 -0.07785,-0.228367 -0.233567,-0.228367 -0.155711,0 -0.233566,-0.07612 -0.233566,-0.228367 0,-0.152244 -0.07785,-0.228365 -0.233565,-0.228365 -0.155711,0 -0.233565,-0.07612 -0.233565,-0.228367 0,-0.125601 -0.07465,-0.228366 -0.165896,-0.228366 -0.09124,0 -0.200522,-0.154147 -0.242845,-0.342549 -0.04232,-0.188402 -0.151602,-0.342549 -0.242844,-0.342549 -0.09124,0 -0.165895,-0.102765 -0.165895,-0.228366 0,-0.125602 -0.07299,-0.228367 -0.162178,-0.228367 -0.09288,0 -0.19494,-0.170752 -0.238856,-0.39964 -0.0459,-0.239222 -0.144874,-0.399641 -0.246564,-0.399641 -0.117139,0 -0.169882,-0.127395 -0.169882,-0.41033 0,-0.314303 -0.05465,-0.424307 -0.233565,-0.47005 -0.193342,-0.04943 -0.233566,-0.155748 -0.233566,-0.617317 0,-0.396992 -0.04626,-0.557598 -0.160577,-0.557598 -0.183676,0 -0.306555,-0.486296 -0.306555,-1.213196 0,-0.367923 -0.04616,-0.499551 -0.175174,-0.499551 -0.149398,0 -0.175174,-0.310832 -0.175174,-2.112387 0,-1.801555 0.02577,-2.112387 0.175174,-2.112387 0.130901,0 0.175577,-0.137078 0.176769,-0.542369 0.0021,-0.704908 0.103176,-1.056194 0.303983,-1.056194 0.117968,0 0.161554,-0.169433 0.161554,-0.628007 0,-0.551885 0.02831,-0.628007 0.233566,-0.628007 0.189077,0 0.233565,-0.07612 0.233565,-0.399641 0,-0.26488 0.05469,-0.39964 0.162177,-0.39964 0.09288,0 0.19494,-0.170753 0.238858,-0.399642 0.0459,-0.239222 0.144871,-0.39964 0.246563,-0.39964 0.09343,0 0.169882,-0.102765 0.169882,-0.228367 0,-0.125601 0.07645,-0.228366 0.169882,-0.228366 0.101691,0 0.200662,-0.160419 0.246563,-0.39964 0.04391,-0.228889 0.145972,-0.399641 0.238857,-0.399641 0.0892,0 0.162178,-0.102765 0.162178,-0.228366 0,-0.152245 0.07785,-0.228366 0.233565,-0.228366 0.15571,0 0.233565,-0.07612 0.233565,-0.228366 0,-0.152244 0.07785,-0.228367 0.233566,-0.228367 0.129758,0 0.233567,-0.07612 0.233567,-0.171274 0,-0.0942 0.07882,-0.171275 0.175174,-0.171275 0.09732,0 0.175174,-0.101495 0.175174,-0.228366 0,-0.152244 0.07785,-0.228366 0.233565,-0.228366 0.128461,0 0.233566,-0.07475 0.233566,-0.166101 0,-0.09943 0.164071,-0.196196 0.408739,-0.241073 0.2341,-0.04294 0.40874,-0.142724 0.40874,-0.233541 0,-0.08721 0.105105,-0.158567 0.233566,-0.158567 0.155711,0 0.233565,-0.07612 0.233565,-0.228365 0,-0.184868 0.07785,-0.228367 0.40874,-0.228367 0.284027,0 0.408741,-0.05185 0.408741,-0.169925 0,-0.109952 0.164869,-0.195702 0.46713,-0.24296 0.281744,-0.04404 0.467131,-0.135215 0.467131,-0.229715 0,-0.09443 0.127609,-0.157301 0.321154,-0.158242 0.500065,-0.0024 0.846675,-0.1241 0.846675,-0.297214 0,-0.120448 0.207994,-0.157958 0.875872,-0.157958 0.700696,0 0.87587,-0.03426 0.87587,-0.171274 0,-0.145901 0.311421,-0.171275 2.102091,-0.171275 1.79067,0 2.102091,0.02538 2.102091,0.171275 0,0.137019 0.175174,0.171274 0.875871,0.171274 0.667878,0 0.87587,0.03751 0.87587,0.157958 0,0.179902 0.350297,0.294936 0.905068,0.297214 0.245233,9.47e-4 0.379544,0.05768 0.379544,0.160128 0,0.09081 0.17464,0.1906 0.408741,0.23354 0.244667,0.04488 0.408739,0.141647 0.408739,0.241073 0,0.113708 0.128929,0.166101 0.40874,0.166101 0.296141,0 0.408739,0.05013 0.408739,0.181964 0,0.100081 0.105105,0.208839 0.233567,0.241684 0.12846,0.03285 0.233566,0.125081 0.233566,0.204968 0,0.07988 0.183932,0.178988 0.408738,0.220224 0.24467,0.04488 0.408741,0.141647 0.408741,0.241073 0,0.09135 0.105104,0.166101 0.233565,0.166101 0.155711,0 0.233566,0.07612 0.233566,0.228366 0,0.126871 0.07785,0.228366 0.175174,0.228366 0.09635,0 0.175175,0.07707 0.175175,0.171275 0,0.09515 0.103806,0.171274 0.233565,0.171274 0.155711,0 0.233565,0.07612 0.233565,0.228367 0,0.152244 0.07785,0.228366 0.233566,0.228366 0.15571,0 0.233566,0.07612 0.233566,0.228366 0,0.125601 0.07644,0.228366 0.169882,0.228366 0.101691,0 0.200663,0.160418 0.246563,0.399641 0.04391,0.228888 0.145973,0.39964 0.238858,0.39964 0.0892,0 0.162177,0.102765 0.162177,0.228366 0,0.125602 0.07644,0.228367 0.169882,0.228367 0.10169,0 0.200663,0.160418 0.246563,0.39964 0.04391,0.228889 0.145972,0.399642 0.238857,0.399642 0.10749,0 0.162178,0.13476 0.162178,0.39964 0,0.323519 0.04449,0.399641 0.233565,0.399641 0.205255,0 0.233566,0.07612 0.233566,0.628007 0,0.456732 0.0438,0.628007 0.160577,0.628007 0.178552,0 0.306553,0.482732 0.306553,1.156104 0,0.317176 0.0496,0.442459 0.175175,0.442459 0.149398,0 0.175174,0.310832 0.175174,2.112387 0,1.801555 -0.02577,2.112387 -0.175174,2.112387 -0.129017,0 -0.175175,0.131628 -0.175175,0.499551 0,0.7269 -0.122879,1.213196 -0.306553,1.213196 -0.114326,0 -0.160577,0.160606 -0.160577,0.557598 0,0.461569 -0.04023,0.567882 -0.233566,0.617317 -0.178905,0.04574 -0.233565,0.155747 -0.233565,0.47005 0,0.274 -0.05388,0.41033 -0.162178,0.41033 -0.09288,0 -0.19494,0.170753 -0.238857,0.399641 -0.0459,0.239222 -0.144873,0.39964 -0.246563,0.39964 -0.09343,0 -0.169882,0.102765 -0.169882,0.228367 0,0.125601 -0.07269,0.228366 -0.161554,0.228366 -0.178418,0 -0.301533,0.339602 -0.303983,0.838517 -0.0011,0.22944 0.06692,0.342213 0.231971,0.384412 0.128461,0.03284 0.233566,0.1308 0.233566,0.217677 0,0.08688 0.08375,0.157957 0.186107,0.157957 0.10236,0 0.213593,0.102765 0.247187,0.228367 0.03359,0.1256 0.127648,0.228365 0.209011,0.228365 0.08137,0 0.175419,0.102764 0.209012,0.228366 0.03359,0.125602 0.144827,0.228367 0.247186,0.228367 0.10236,0 0.186108,0.07707 0.186108,0.171275 0,0.0942 0.07883,0.171274 0.175174,0.171274 0.09635,0 0.175174,0.08188 0.175174,0.181964 0,0.10008 0.105105,0.208838 0.233565,0.241684 0.128462,0.03284 0.233566,0.135609 0.233566,0.228365 0,0.09275 0.105105,0.195521 0.233566,0.228367 0.128461,0.03284 0.233565,0.1308 0.233565,0.217676 0,0.08688 0.07883,0.157958 0.175175,0.157958 0.09635,0 0.175174,0.08188 0.175174,0.181964 0,0.10008 0.105105,0.208838 0.233565,0.241684 0.128462,0.03285 0.233565,0.13561 0.233565,0.228365 0,0.09275 0.105106,0.195522 0.233567,0.228367 0.128461,0.03285 0.233566,0.1308 0.233566,0.217676 0,0.08688 0.0727,0.157957 0.161553,0.157957 0.08885,0 0.18904,0.102766 0.222633,0.228367 0.03359,0.125601 0.144826,0.228366 0.247186,0.228366 0.102359,0 0.186107,0.07707 0.186107,0.171274 0,0.0942 0.08375,0.171275 0.186107,0.171275 0.10236,0 0.213594,0.102765 0.247187,0.228366 0.03359,0.125602 0.133778,0.228366 0.222632,0.228366 0.08885,0 0.161554,0.08188 0.161554,0.181965 0,0.10008 0.105104,0.208838 0.233566,0.241684 0.128461,0.03285 0.233566,0.124806 0.233566,0.204359 0,0.07955 0.105104,0.171513 0.233565,0.204358 0.128461,0.03285 0.233565,0.141603 0.233565,0.241684 0,0.10008 0.07883,0.181964 0.175175,0.181964 0.09732,0 0.175175,0.101496 0.175175,0.228367 0,0.152244 0.07785,0.228365 0.233565,0.228365 0.211321,0 0.233566,0.07612 0.233566,0.799282 0,0.723159 -0.02225,0.799282 -0.233566,0.799282 -0.128462,0 -0.233565,0.07107 -0.233565,0.157957 0,0.254253 -0.640178,0.356046 -1.372198,0.218193 z m -13.926352,-7.626775 c 0,-0.104168 0.108673,-0.171275 0.277359,-0.171275 0.526114,0 1.007252,-0.143175 1.007252,-0.299731 0,-0.114183 0.175174,-0.157002 0.642305,-0.157002 0.564451,0 0.642305,-0.02768 0.642305,-0.228365 0,-0.184869 0.07785,-0.228367 0.408741,-0.228367 0.296141,0 0.40874,-0.05013 0.40874,-0.181964 0,-0.100081 0.105105,-0.208839 0.233565,-0.241684 0.128461,-0.03285 0.233566,-0.1308 0.233566,-0.217676 0,-0.08688 0.105104,-0.157957 0.233566,-0.157957 0.128461,0 0.233565,-0.07108 0.233565,-0.157958 0,-0.08688 0.105105,-0.184831 0.233566,-0.217677 0.128461,-0.03285 0.233565,-0.141603 0.233565,-0.241683 0,-0.10008 0.07883,-0.181964 0.175175,-0.181964 0.09732,0 0.175175,-0.101496 0.175175,-0.228366 0,-0.152244 0.07785,-0.228367 0.233565,-0.228367 0.129758,0 0.233565,-0.07612 0.233565,-0.171275 0,-0.0942 0.07883,-0.171274 0.175174,-0.171274 0.09732,0 0.175175,-0.101495 0.175175,-0.228366 0,-0.152244 0.07785,-0.228366 0.233565,-0.228366 0.187544,0 0.233566,-0.07612 0.233566,-0.386323 0,-0.290296 0.05805,-0.401169 0.233566,-0.446043 0.139743,-0.03573 0.233565,-0.155748 0.233565,-0.298776 0,-0.136371 0.07524,-0.239055 0.175174,-0.239055 0.112858,0 0.175742,-0.111705 0.176769,-0.314003 0.0025,-0.488933 0.126927,-0.827829 0.303983,-0.827829 0.117968,0 0.161554,-0.169432 0.161554,-0.628006 0,-0.454219 0.04407,-0.628007 0.159262,-0.628007 0.119,0 0.173343,-0.267003 0.214963,-1.056193 0.08422,-1.596936 -0.01774,-3.054398 -0.213696,-3.054398 -0.116548,0 -0.160529,-0.170504 -0.160529,-0.622332 0,-0.452689 -0.05112,-0.650305 -0.187531,-0.724946 -0.112834,-0.06174 -0.211919,-0.314149 -0.248754,-0.633681 -0.0397,-0.344402 -0.117456,-0.531069 -0.221209,-0.531069 -0.088,0 -0.159986,-0.102765 -0.159986,-0.228366 0,-0.152244 -0.07785,-0.228366 -0.233565,-0.228366 -0.189078,0 -0.233566,-0.07612 -0.233566,-0.399641 0,-0.289548 -0.05127,-0.39964 -0.186107,-0.39964 -0.102359,0 -0.213594,-0.102765 -0.247187,-0.228367 -0.03359,-0.125602 -0.133778,-0.228366 -0.222632,-0.228366 -0.08885,0 -0.161554,-0.102765 -0.161554,-0.228366 0,-0.152244 -0.07785,-0.228366 -0.233565,-0.228366 -0.155711,0 -0.233565,-0.07612 -0.233565,-0.228367 0,-0.126869 -0.07785,-0.228366 -0.175175,-0.228366 -0.09635,0 -0.175175,-0.07707 -0.175175,-0.171274 0,-0.0942 -0.09898,-0.171275 -0.219944,-0.171275 -0.121731,0 -0.24722,-0.101975 -0.281025,-0.228366 -0.03359,-0.125602 -0.144826,-0.228366 -0.247186,-0.228366 -0.102359,0 -0.186107,-0.07707 -0.186107,-0.171275 0,-0.09515 -0.103807,-0.171274 -0.233566,-0.171274 -0.12846,0 -0.233565,-0.07475 -0.233565,-0.166101 0,-0.09943 -0.164072,-0.196195 -0.40874,-0.241074 -0.2341,-0.04295 -0.408741,-0.142722 -0.408741,-0.23354 0,-0.09648 -0.125742,-0.159177 -0.321152,-0.160126 -0.500065,-0.0024 -0.846676,-0.124101 -0.846676,-0.297216 0,-0.116937 -0.181966,-0.157957 -0.700696,-0.157957 -0.513108,0 -0.700697,-0.04159 -0.700697,-0.155369 0,-0.184169 -0.808947,-0.299379 -2.102091,-0.299379 -1.293143,0 -2.102091,0.11521 -2.102091,0.299379 0,0.113773 -0.18759,0.155369 -0.700697,0.155369 -0.51873,0 -0.700697,0.04102 -0.700697,0.157957 0,0.173115 -0.34661,0.294788 -0.846675,0.297216 -0.206905,9.46e-4 -0.321153,0.06248 -0.321153,0.172834 0,0.09515 -0.103806,0.171274 -0.233566,0.171274 -0.12846,0 -0.233565,0.07475 -0.233565,0.166101 0,0.09943 -0.164071,0.196196 -0.40874,0.241073 -0.234099,0.04295 -0.408739,0.142724 -0.408739,0.233541 0,0.08721 -0.08375,0.158567 -0.186108,0.158567 -0.102359,0 -0.213593,0.102764 -0.247186,0.228366 -0.03381,0.126391 -0.159294,0.228366 -0.281024,0.228366 -0.12097,0 -0.219945,0.07707 -0.219945,0.171275 0,0.0942 -0.07882,0.171274 -0.175174,0.171274 -0.09732,0 -0.175175,0.101497 -0.175175,0.228366 0,0.132833 -0.07785,0.228367 -0.186106,0.228367 -0.10236,0 -0.213594,0.102765 -0.247187,0.228366 -0.03359,0.125601 -0.133778,0.228366 -0.222633,0.228366 -0.08885,0 -0.161553,0.102764 -0.161553,0.228366 0,0.152245 -0.07785,0.228367 -0.233566,0.228367 -0.155711,0 -0.233565,0.07612 -0.233565,0.228366 0,0.126869 -0.07785,0.228365 -0.175174,0.228365 -0.117962,0 -0.175174,0.115372 -0.175174,0.35324 0,0.249664 -0.06436,0.369695 -0.219499,0.409361 -0.161746,0.04136 -0.235312,0.193297 -0.2796,0.577471 -0.03589,0.311364 -0.135634,0.562677 -0.247634,0.62396 -0.136411,0.07464 -0.18753,0.272257 -0.18753,0.724946 0,0.477062 -0.04089,0.622332 -0.175175,0.622332 -0.149222,0 -0.175174,0.304488 -0.175174,2.055296 0,1.750806 0.02595,2.055295 0.175174,2.055295 0.134478,0 0.175175,0.145901 0.175175,0.628007 0,0.458574 0.04359,0.628006 0.161553,0.628006 0.175315,0 0.301457,0.337991 0.303983,0.814511 0.0011,0.203872 0.0768,0.319914 0.23516,0.360404 0.178905,0.04575 0.233567,0.155749 0.233567,0.470051 0,0.288616 0.05196,0.41033 0.175174,0.41033 0.09732,0 0.175174,0.101497 0.175174,0.228367 0,0.152243 0.07785,0.228366 0.233565,0.228366 0.15571,0 0.233566,0.07612 0.233566,0.228366 0,0.126871 0.07785,0.228366 0.175174,0.228366 0.09634,0 0.175174,0.07707 0.175174,0.171274 0,0.09515 0.103807,0.171275 0.233566,0.171275 0.155711,0 0.233565,0.07612 0.233565,0.228367 0,0.12687 0.07785,0.228366 0.175175,0.228366 0.09634,0 0.175174,0.08188 0.175174,0.181964 0,0.10008 0.105104,0.208838 0.233565,0.241683 0.128462,0.03285 0.233565,0.1308 0.233565,0.217677 0,0.08688 0.105106,0.157958 0.233567,0.157958 0.128461,0 0.233566,0.07475 0.233566,0.1661 0,0.09943 0.16407,0.196195 0.408739,0.241073 0.234099,0.04295 0.40874,0.142724 0.40874,0.23354 0,0.08721 0.105105,0.158568 0.233565,0.158568 0.155711,0 0.233566,0.07612 0.233566,0.228367 0,0.197917 0.07785,0.228365 0.583914,0.228365 0.432295,0 0.583914,0.043 0.583914,0.165605 0,0.117671 0.202812,0.188039 0.700697,0.243115 0.47709,0.05278 0.700697,0.127461 0.700697,0.234036 0,0.126781 0.399451,0.156526 2.102091,0.156526 1.79067,0 2.102091,-0.02538 2.102091,-0.171274 z"
       id="path1" /></g></svg>
