<?xml version="1.0" encoding="UTF-8" standalone="no"?>
<!-- Created with Inkscape (http://www.inkscape.org/) -->

<svg
   width="33.037964mm"
   height="30.502981mm"
   viewBox="0 0 33.037964 30.502981"
   version="1.1"
   id="svg1"
   inkscape:version="1.4 (e7c3feb1, 2024-10-09)"
   sodipodi:docname="sun-icon.svg"
   xmlns:inkscape="http://www.inkscape.org/namespaces/inkscape"
   xmlns:sodipodi="http://sodipodi.sourceforge.net/DTD/sodipodi-0.dtd"
   xmlns="http://www.w3.org/2000/svg"
   xmlns:svg="http://www.w3.org/2000/svg">
  <sodipodi:namedview
     id="namedview1"
     pagecolor="#ffffff"
     bordercolor="#000000"
     borderopacity="0.25"
     inkscape:showpageshadow="2"
     inkscape:pageopacity="0.0"
     inkscape:pagecheckerboard="0"
     inkscape:deskcolor="#d1d1d1"
     inkscape:document-units="mm"
     inkscape:zoom="3.9979639"
     inkscape:cx="87.79469"
     inkscape:cy="70.786032"
     inkscape:window-width="1512"
     inkscape:window-height="945"
     inkscape:window-x="0"
     inkscape:window-y="37"
     inkscape:window-maximized="0"
     inkscape:current-layer="layer1" />
  <defs
     id="defs1" />
  <g
     inkscape:label="Layer 1"
     inkscape:groupmode="layer"
     id="layer1"
     transform="translate(-1.9761876,-2.0866065)">
    <path
       d="m 12.722179,31.965457 c -0.168124,-0.210968 -0.46731,-1.197111 -0.664845,-2.191436 -0.197543,-0.994326 -0.51848,-1.995462 -0.713205,-2.224768 -0.249294,-0.293537 -1.172259,-0.4169 -3.1191843,-0.4169 -2.095086,0 -2.8846993,-0.116849 -3.2585556,-0.48222 C 4.3342743,26.0324 4.3300321,26.056235 5.4273463,24.063715 6.9315896,21.332272 6.6921357,20.551608 3.9204321,19.151002 1.4185054,17.886716 1.5970083,16.687444 4.5131993,15.168458 5.5272619,14.640245 6.3569594,14.026402 6.3569594,13.80436 c 0,-0.222051 -0.2119488,-0.990802 -0.4710028,-1.708338 -0.63619,-1.762178 -0.6230415,-3.8665526 0.025728,-4.1098339 0.2731747,-0.1024488 1.4523265,-0.1862634 2.6203427,-0.1862634 2.5489327,0 2.9770727,-0.3389988 3.5037427,-2.7743086 0.501729,-2.3199614 0.78657,-2.7492394 1.82418,-2.7492394 0.704565,0 1.139215,0.3311128 2.114795,1.6110316 1.673328,2.1953448 2.206166,2.2072478 4.34814,0.09712 2.751387,-2.7104213 4.246164,-2.2904505 4.246164,1.193005 0,0.80672 0.215416,1.5866827 0.549503,1.9895394 0.524628,0.6326458 0.653178,0.6469076 2.84048,0.3150348 3.351814,-0.5085525 3.671101,-0.1406351 2.604936,3.0016205 -1.153483,3.399581 -1.173073,3.284756 0.714669,4.187351 1.80073,0.860994 3.338439,2.08494 3.338439,2.657252 0,0.577226 -1.944579,2.177608 -3.375508,2.778049 -1.459102,0.612265 -1.542384,0.765217 -0.906154,1.66425 0.235594,0.332919 0.651254,1.354387 0.923692,2.269931 0.741084,2.490483 0.492586,2.74162 -2.81982,2.849724 l -2.714702,0.08864 -0.697798,2.023995 c -0.383784,1.113188 -0.860708,2.32147 -1.059813,2.685056 -0.556778,1.0167 -1.689492,0.815218 -3.359894,-0.597648 -1.289565,-1.090742 -1.632156,-1.235878 -2.567199,-1.087594 -0.593465,0.09416 -1.721838,0.660538 -2.507475,1.258717 -1.500217,1.142245 -2.301044,1.342869 -2.810177,0.704016 z"
       style="fill:#ff9d00;fill-opacity:1;stroke-width:0.984474"
       id="path1-9"
       sodipodi:nodetypes="sssssssssssssssssssssssssscsssssss" />
    <path
       d="M 15.143461,26.560922 C 10.847129,25.187398 8.3451045,21.842446 8.3444663,17.471358 8.3440538,14.65301 9.3619166,12.291319 11.323366,10.55954 c 2.064291,-1.8225712 3.781111,-2.444686 6.701318,-2.4283415 2.096235,0.011745 2.783115,0.1509786 4.15001,0.841284 2.070075,1.0454215 3.560187,2.4961765 4.519044,4.3996905 1.05882,2.101976 1.075927,6.062954 0.03515,8.127474 -2.091865,4.149324 -7.308875,6.428463 -11.585391,5.061275 z"
       style="fill:#ffd800;fill-opacity:1;stroke-width:0.984474"
       id="path1-3" />
  </g>
</svg>
