<?xml version="1.0" encoding="UTF-8" standalone="no"?>
<!-- Created with Inkscape (http://www.inkscape.org/) -->

<svg
   width="37.682602mm"
   height="24.128826mm"
   viewBox="0 0 37.682602 24.128826"
   version="1.1"
   id="svg1"
   inkscape:version="1.4 (e7c3feb1, 2024-10-09)"
   sodipodi:docname="sunrise-icon.svg"
   xmlns:inkscape="http://www.inkscape.org/namespaces/inkscape"
   xmlns:sodipodi="http://sodipodi.sourceforge.net/DTD/sodipodi-0.dtd"
   xmlns="http://www.w3.org/2000/svg"
   xmlns:svg="http://www.w3.org/2000/svg">
  <sodipodi:namedview
     id="namedview1"
     pagecolor="#ffffff"
     bordercolor="#000000"
     borderopacity="0.25"
     inkscape:showpageshadow="2"
     inkscape:pageopacity="0.0"
     inkscape:pagecheckerboard="0"
     inkscape:deskcolor="#d1d1d1"
     inkscape:document-units="mm"
     inkscape:zoom="3.3990272"
     inkscape:cx="93.261978"
     inkscape:cy="75.315666"
     inkscape:window-width="1512"
     inkscape:window-height="945"
     inkscape:window-x="0"
     inkscape:window-y="37"
     inkscape:window-maximized="0"
     inkscape:current-layer="layer1" />
  <defs
     id="defs1" />
  <g
     inkscape:label="Layer 1"
     inkscape:groupmode="layer"
     id="layer1"
     transform="translate(-5.0234265,-4.085769)">
    <path
       d="m 24.439767,4.2172246 c -0.41551,0.2584 -0.86618,4.05633 -0.5703,4.80603 0.42452,1.0756404 1.0125,0.54553 1.21524,-1.09561 0.39394,-3.18891 0.21079,-4.24261 -0.64494,-3.71042 z m -6.82223,3.17631 c 0,0.67606 0.94401,2.4773 1.29833,2.4773 0.349,0 0.17848,-1.92466 -0.22705,-2.56265 -0.22364,-0.35183 -1.07128,-0.2843 -1.07128,0.0853 z m 12.98728,1.37817 c -0.62679,0.93011 -0.64101,1.09913 -0.0925,1.09913 0.54887,0 1.88679,-1.38058 1.6042,-1.65535 -0.42359,-0.41186 -1.00296,-0.19868 -1.51168,0.55622 z m -19.06283,1.13584 c 0,0.7099004 2.03505,3.6882604 2.64971,3.8779404 1.01459,0.31311 0.93449,-0.0309 -0.48157,-2.06792 -1.3349,-1.9202804 -2.16814,-2.6158904 -2.16814,-1.8100204 z m 23.08466,2.1405704 c -0.75757,0.85533 -1.29315,1.68769 -1.19017,1.84969 0.40114,0.63109 4.00652,-2.17481 4.00652,-3.11809 0,-0.15788 -0.32376,-0.28699 -0.71947,-0.2869 -0.46653,9e-5 -1.20372,0.54689 -2.09688,1.5553 z m -16.3164,-0.52957 c -0.18969,0.22224 -0.44288,1.02672 -0.56264,1.78774 -0.23561,1.49713 -0.66068,2.49445 -1.21718,2.85574 -0.19351,0.12563 -1.52869,0.23057 -2.96706,0.23319 -1.94616,0.003 -2.74378,0.12975 -3.11772,0.49333 -0.6379799,0.62032 -0.6664599,0.45696 0.45681,2.62054 1.50758,2.903791 1.30606,3.563741 -1.5081899,4.939371 -2.14657,1.04925 -2.47041,2.26437 -0.87445,3.28112 0.66191,0.42169 2.6848999,0.48502 15.4930299,0.48502 13.02259,0 14.82316,-0.0583 15.51988,-0.50212 1.62872,-1.03763 0.5502,-2.97716 -2.32955,-4.18926 -0.74745,-0.3146 -1.35901,-0.65251 -1.35901,-0.7509 0,-0.0984 0.30624,-0.76254 0.68053,-1.47589 0.39838,-0.759261 0.69667,-1.946501 0.71947,-2.863551 L 37.0817,17.309341 c -1.303436,-0.814612 -1.708586,-0.506366 -2.56288,-0.759549 l -2.965613,0.0056 -0.68439,-1.86547 c -1.25585,-3.42309 -1.34928,-3.57547 -2.19206,-3.57547 -0.45971,0 -1.40343,0.518 -2.26572,1.24364 -0.97609,0.82141 -1.78603,1.24365 -2.38558,1.24365 -0.56214,0 -1.55584,-0.47349 -2.61001,-1.24365 -1.78871,-1.30679 -2.53437,-1.5084 -3.10525,-0.83958 z m -10.6054399,2.63587 c 0,0.49587 1.0121,1.62373 1.45707,1.62373 0.54427,0 0.58881,-0.43144 0.1305,-1.26408 -0.31657,-0.57515 -1.58757,-0.86308 -1.58757,-0.35965 z m 31.5045199,1.19438 c -0.28475,0.27686 -0.43492,0.58388 -0.33373,0.68228 0.1012,0.0984 0.49976,-0.12813 0.8857,-0.50338 0.38594,-0.37525 0.53612,-0.68228 0.33373,-0.68228 -0.20239,0 -0.60096,0.22652 -0.8857,0.50338 z m -34.1629399,5.2096 c -0.12214,0.30949 0.2338,0.481131 1.28948,0.621821 2.22591,0.29665 2.96777,0.23836 2.96777,-0.23317 0,-0.794751 -3.9545,-1.155761 -4.25725,-0.388651 z m 33.2402699,0.660701 c -0.15344,0.38879 0.21156,0.46637 2.19412,0.46637 1.98255,0 2.34755,-0.0776 2.19411,-0.46637 -0.1366,-0.346111 -0.70238,-0.466371 -2.19411,-0.466371 -1.49174,0 -2.05752,0.12026 -2.19412,0.466371 z"
       style="fill:#ffb549;fill-opacity:1"
       id="path1-2"
       sodipodi:nodetypes="ssssssssssssssssssssssscsscssssscsssscccsssssccssssssssssssssssss" />
    <path
       d="m 21.44704,14.807149 c -2.65317,0.66257 -5.39217,2.98725 -6.61179,5.61164 -0.74498,1.60305 -0.89414,5.45837 -0.26826,6.933571 l 0.36275,0.855 h 8.96926 8.969266 l 0.3756,-0.855 c 0.20658,-0.47026 0.37509,-1.974291 0.37446,-3.342301 -9.4e-4,-2.07514 -0.13939,-2.74488 -0.83553,-4.04184 -1.07367,-2.00034 -2.87577,-3.67886 -4.867146,-4.53339 -1.70786,-0.73286 -4.83308,-1.03612 -6.46861,-0.62768 z"
       style="fill:#fff289;fill-opacity:1"
       id="path1-7" />
  </g>
</svg>
