<?xml version="1.0" encoding="UTF-8" standalone="no"?>
<!-- Created with Inkscape (http://www.inkscape.org/) -->

<svg
   width="169.83136mm"
   height="56.645557mm"
   viewBox="0 0 169.83136 56.645557"
   version="1.1"
   id="svg1"
   inkscape:version="1.4 (e7c3feb1, 2024-10-09)"
   sodipodi:docname="cloud-8.svg"
   xmlns:inkscape="http://www.inkscape.org/namespaces/inkscape"
   xmlns:sodipodi="http://sodipodi.sourceforge.net/DTD/sodipodi-0.dtd"
   xmlns="http://www.w3.org/2000/svg"
   xmlns:svg="http://www.w3.org/2000/svg">
  <sodipodi:namedview
     id="namedview1"
     pagecolor="#ffffff"
     bordercolor="#000000"
     borderopacity="0.25"
     inkscape:showpageshadow="2"
     inkscape:pageopacity="0.0"
     inkscape:pagecheckerboard="0"
     inkscape:deskcolor="#d1d1d1"
     inkscape:document-units="mm"
     inkscape:zoom="0.63387585"
     inkscape:cx="298.16564"
     inkscape:cy="115.95331"
     inkscape:window-width="1104"
     inkscape:window-height="414"
     inkscape:window-x="658"
     inkscape:window-y="192"
     inkscape:window-maximized="0"
     inkscape:current-layer="layer1" />
  <defs
     id="defs1" />
  <g
     inkscape:label="Layer 1"
     inkscape:groupmode="layer"
     id="layer1"
     transform="translate(-5.4464461,-6.9541341)">
    <path
       d="m 117.21311,61.278188 c -1.59649,-0.137439 -5.35241,-1.020537 -6.8259,-1.604919 -1.90002,-0.753539 -4.49669,-2.559913 -6.2566,-4.352385 l -1.53099,-1.55931 -1.75069,1.156729 c -0.962884,0.636202 -2.164193,1.51657 -2.669569,1.956365 -1.676834,1.459244 -3.792701,2.120043 -8.333484,2.602587 -1.190152,0.126482 -3.021331,0.399072 -4.069283,0.605771 -2.381594,0.469729 -3.520951,0.467524 -5.843386,-0.01135 -1.010752,-0.208397 -2.95228,-0.541887 -4.31449,-0.741081 -3.738534,-0.54669 -7.819793,-2.032294 -10.099789,-3.676398 -0.833307,-0.600902 -0.847457,-0.602197 -1.483364,-0.136173 -1.157239,0.848079 -5.748736,1.702697 -9.188284,1.710211 -1.782022,0.0038 -2.203354,-0.09645 -4.159131,-0.990612 -2.438103,-1.114675 -4.059202,-2.230626 -5.80329,-3.994917 l -1.181411,-1.195097 -1.471307,0.941606 c -1.113798,0.712816 -2.006878,1.042123 -3.675476,1.355257 -5.487723,1.029853 -10.742534,-0.06707 -14.54241,-3.035693 -0.717163,-0.560283 -1.400579,-1.018689 -1.518687,-1.018689 -0.118119,0 -0.592844,0.192946 -1.054948,0.428782 -1.116357,0.56971 -5.835786,0.512421 -8.15582,-0.09902 C 10.90149,48.991746 9.163315,47.248486 7.6352006,43.95373 6.2869525,41.046781 5.9872018,39.34747 6.6926762,38.610489 c 0.7692963,-0.803651 2.0126827,-0.637084 3.3377318,0.447121 1.72343,1.410201 2.936275,1.706778 5.403372,1.321289 1.60554,-0.250864 2.179193,-0.462356 2.816331,-1.038286 0.440055,-0.397787 0.92384,-0.723248 1.07508,-0.723248 0.151239,0 0.500037,-0.235263 0.775101,-0.522815 1.471496,-1.53826 5.591255,-2.185231 7.863641,-1.234919 0.642873,0.268847 1.168858,0.594832 1.168858,0.72442 0,0.129578 0.171025,0.297646 0.380064,0.373481 0.264327,0.0959 0.616161,-0.308809 1.155433,-1.329065 0.977938,-1.850193 4.27462,-6.016114 5.375677,-6.793086 0.458472,-0.323528 1.974878,-0.988258 3.369782,-1.477171 2.401568,-0.841747 2.655883,-0.88095 4.791248,-0.738482 1.667715,0.111267 2.255071,0.07289 2.255071,-0.147486 0,-0.163866 1.241779,-1.500802 2.759515,-2.970974 2.852697,-2.763291 3.09064,-2.910731 7.610596,-4.715473 2.565756,-1.024468 6.280982,-1.821083 7.61262,-1.632293 0.589638,0.08358 1.776178,0.03396 2.636752,-0.110394 1.010018,-0.169382 1.936934,-0.180498 2.614814,-0.03133 0.577582,0.127064 1.084883,0.13742 1.127362,0.02298 0.04247,-0.11441 0.817827,-1.310144 1.723033,-2.657193 1.94767,-2.898357 3.246474,-3.932102 6.469581,-5.149301 4.941822,-1.8662624 5.877579,-2.0236354 11.551519,-1.9426974 5.906138,0.08424 7.419547,0.396492 12.385742,2.5554574 1.54178,0.670264 2.91988,1.218662 3.06247,1.218662 0.35717,0 2.2964,2.095484 3.33056,3.59894 0.46951,0.682553 1.16982,1.518756 1.55625,1.858222 0.38644,0.339466 1.0089,1.149225 1.38324,1.79947 0.73789,1.281739 0.97777,1.358118 2.56618,0.817113 1.38237,-0.470836 6.31422,-0.487665 8.83744,-0.03021 2.27161,0.411877 5.62284,1.626102 7.14557,2.588984 0.59496,0.376221 1.65669,0.957995 2.35941,1.292846 0.70272,0.33486 2.50071,1.651702 3.99553,2.926331 2.79208,2.380803 2.94303,2.586648 4.71588,6.43164 0.80738,1.751055 0.8535,1.767077 3.40017,1.181006 2.09848,-0.482928 8.99007,-0.95716 11.28899,-0.77684 2.51686,0.19743 8.65827,2.013757 10.36371,3.065092 0.35746,0.220357 1.53887,0.822395 2.62534,1.337865 1.55009,0.735415 2.32869,1.317724 3.61625,2.704548 1.33101,1.433634 1.64084,1.928222 1.64084,2.619322 0,1.617143 -1.46899,2.369725 -3.38032,1.731796 -0.67634,-0.225732 -2.03007,-0.383416 -3.29169,-0.383416 -2.515,0 -4.18078,0.637976 -4.86052,1.861516 -1.03034,1.854648 -1.74428,2.657399 -4.0184,4.518239 -3.58773,2.935711 -4.16987,3.176275 -7.68338,3.17499 -3.83849,-9.39e-4 -7.24145,-0.706278 -9.87656,-2.045785 -0.0895,-0.0455 -0.54272,0.477 -1.00709,1.161148 -0.8448,1.244647 -3.86915,3.977684 -6.002,5.42387 -1.23584,0.837967 -4.2671,1.863316 -6.72503,2.2748 -1.43905,0.24092 -8.3458,0.296614 -10.78133,0.08696 z"
       class="cloud-shape"
       fill="currentColor" 
       stroke="currentColor"
       id="path1" />
  </g>
</svg>
