<?xml version="1.0" encoding="UTF-8" standalone="no"?>
<!-- Created with Inkscape (http://www.inkscape.org/) -->

<svg
   width="148.66083mm"
   height="56.786659mm"
   viewBox="0 0 148.66083 56.786659"
   version="1.1"
   id="svg1"
   inkscape:version="1.4 (e7c3feb1, 2024-10-09)"
   sodipodi:docname="cloud-two.svg"
   xmlns:inkscape="http://www.inkscape.org/namespaces/inkscape"
   xmlns:sodipodi="http://sodipodi.sourceforge.net/DTD/sodipodi-0.dtd"
   xmlns="http://www.w3.org/2000/svg"
   xmlns:svg="http://www.w3.org/2000/svg">
  <sodipodi:namedview
     id="namedview1"
     pagecolor="#ffffff"
     bordercolor="#000000"
     borderopacity="0.25"
     inkscape:showpageshadow="2"
     inkscape:pageopacity="0.0"
     inkscape:pagecheckerboard="0"
     inkscape:deskcolor="#d1d1d1"
     inkscape:document-units="mm"
     inkscape:zoom="1.3387649"
     inkscape:cx="265.16979"
     inkscape:cy="197.94364"
     inkscape:window-width="1512"
     inkscape:window-height="945"
     inkscape:window-x="0"
     inkscape:window-y="37"
     inkscape:window-maximized="0"
     inkscape:current-layer="layer1" />
  <defs
     id="defs1" />
  <g
     inkscape:label="Layer 1"
     inkscape:groupmode="layer"
     id="layer1"
     transform="translate(-3.0381279,-4.7482982)">
    <path
       d="m 82.0143,60.872801 c -1.970576,-0.131965 -3.883366,-0.593404 -4.605529,-1.111025 -0.960983,-0.68879 -1.278579,-1.848664 -0.899121,-3.283552 0.145709,-0.55095 0.143338,-0.596792 -0.02807,-0.544361 -0.457908,0.140034 -0.87425,0.225442 -1.682839,0.345218 -3.637849,0.538877 -4.681458,0.649381 -7.166973,0.758924 -1.546892,0.06815 -3.06565,0.153702 -3.375032,0.190047 -2.990187,0.351308 -4.861501,0.460813 -9.956351,0.582615 -4.200124,0.100409 -6.39379,0.101867 -7.593826,0.0049 -0.928135,-0.0749 -3.521863,-0.194884 -5.763841,-0.266683 -2.241978,-0.07177 -4.212606,-0.189528 -4.379172,-0.261601 -0.166566,-0.07206 -0.837404,-0.188666 -1.49075,-0.259124 -1.297176,-0.139867 -2.389387,-0.466481 -3.452468,-1.032431 -0.565415,-0.30101 -0.721988,-0.455858 -0.890218,-0.880413 -0.112273,-0.283348 -0.195772,-0.758602 -0.185553,-1.056136 0.02112,-0.615024 0.315784,-1.8648 0.499618,-2.119067 0.210936,-0.291758 -0.08883,-0.370567 -1.759638,-0.462594 -0.874869,-0.04817 -2.147551,-0.154006 -2.828183,-0.235146 -0.762864,-0.09096 -3.826506,-0.155924 -7.98758,-0.169426 C 14.756236,51.060906 11.3137,50.994616 10.818695,50.925569 10.014068,50.813381 8.3046365,50.228534 7.7611753,49.879508 7.6484159,49.807058 7.3610297,49.660401 7.1225403,49.55352 5.601066,48.871692 3.7872581,46.752811 4.0522802,45.966853 c 0.084947,-0.251898 0.490135,-0.246591 0.9163509,0.01204 0.237668,0.144205 0.6321819,0.203911 1.3336933,0.201836 1.0053424,-0.0029 1.3028393,-0.06795 3.9538606,-0.863602 0.804383,-0.241422 1.892833,-0.552165 2.418776,-0.690534 0.525943,-0.138378 1.310638,-0.363282 1.743768,-0.499791 0.433129,-0.136518 1.3697,-0.347743 2.081271,-0.469389 0.711569,-0.121655 1.724079,-0.328005 2.250022,-0.45857 0.525943,-0.130565 1.114806,-0.238631 1.308586,-0.240158 l 0.352326,-0.0029 0.04669,-1.632356 0.04669,-1.632357 0.499434,-1.088241 c 0.274688,-0.598526 0.677324,-1.314584 0.894746,-1.591225 0.597445,-0.760187 2.287177,-1.950668 3.320345,-2.339319 0.821374,-0.308981 1.063335,-0.339431 2.769357,-0.348478 l 1.86935,-0.0099 0.06248,-1.152246 c 0.05437,-1.002735 0.144079,-1.389614 0.691294,-2.981436 0.854895,-2.486843 1.01669,-2.748894 2.5951,-4.203277 0.919625,-0.847358 1.421391,-1.178692 2.300084,-1.518798 1.745695,-0.6757 4.953978,-1.033156 5.931141,-0.660827 0.299125,0.113969 0.822304,0.266663 1.16262,0.339323 0.340317,0.07265 1.265252,0.473756 2.055414,0.891341 1.552306,0.820374 3.165286,2.142937 3.787195,3.105323 l 0.328859,0.508897 0.210323,-0.492879 c 0.313902,-0.735612 1.403944,-2.221052 2.023926,-2.758088 0.885361,-0.766905 1.529619,-1.029945 2.686994,-1.097044 0.863383,-0.05003 1.105838,-0.01811 1.546891,0.203941 0.287666,0.144811 0.523034,0.209463 0.523034,0.143666 0,-0.0658 -0.214704,-0.739499 -0.477111,-1.497131 l -0.477109,-1.377502 -7.28e-4,-2.49655 c -5.17e-4,-1.773114 0.04338,-2.638812 0.151477,-2.987505 0.08371,-0.270022 0.456957,-0.903766 0.829432,-1.408305 0.372475,-0.50455 0.75115,-1.044387 0.841504,-1.199656 0.30462,-0.523446 1.546733,-1.573071 2.113635,-1.786078 0.309471,-0.11628 0.663931,-0.283768 0.787686,-0.372192 0.123755,-0.08841 0.607922,-0.281223 1.075939,-0.428443 0.945766,-0.297505 3.104696,-0.374718 3.818606,-0.136567 0.216152,0.07206 0.771407,0.192191 1.233889,0.266858 0.66033,0.106617 1.140063,0.30525 2.234334,0.92513 1.724901,0.977121 2.366304,1.60457 2.784243,2.723663 l 0.306803,0.821519 0.591802,-1.057839 c 1.623565,-2.902127 2.757339,-4.474895 4.033647,-5.5954569 0.651719,-0.5721968 2.593169,-1.7991399 3.49593,-2.2093317 1.087923,-0.4943374 4.066047,-1.1431991 5.850062,-1.2746066 3.420993,-0.2519664 3.851263,-0.2635493 4.102761,-0.1103663 0.134598,0.081952 0.976141,0.1984771 1.870113,0.2588985 1.152513,0.077938 1.911133,0.2021684 2.607554,0.42716 0.540196,0.1745181 1.463115,0.4433057 2.050929,0.5973112 1.177958,0.308628 3.070828,1.1061003 3.763737,1.5856823 0.478842,0.3314218 1.587644,1.4849903 3.585834,3.7306275 1.21542,1.365919 1.27297,1.45593 1.74907,2.735804 0.59075,1.588052 0.71305,2.109971 1.0285,4.388703 0.21401,1.546008 0.23753,2.146651 0.20055,5.121125 -0.0377,3.034464 -0.0684,3.48761 -0.30894,4.554878 -0.14687,0.651848 -0.23966,1.21633 -0.20619,1.254418 0.0334,0.03809 0.43389,-0.08362 0.88982,-0.270423 0.60965,-0.249793 1.1308,-0.35731 1.96968,-0.406383 1.00168,-0.05855 1.2657,-0.02595 2.16647,0.268131 0.56417,0.184172 1.33443,0.512167 1.71168,0.728885 0.78129,0.448828 2.55563,2.315733 2.97512,3.13033 0.34543,0.670784 0.61975,2.036273 0.66215,3.296036 0.0186,0.55094 0.0656,1.037944 0.10447,1.082229 0.0389,0.04426 0.0707,0.02095 0.0707,-0.05179 0,-0.302557 0.95154,-0.829108 1.94671,-1.077246 0.84901,-0.211695 1.25652,-0.243262 2.27208,-0.176026 1.49417,0.09894 2.02238,0.236839 2.9897,0.780524 1.33073,0.747949 2.56563,2.620562 2.82249,4.28004 0.0999,0.64519 0.15219,0.763879 0.30424,0.690142 1.02494,-0.49702 2.80785,-0.986903 4.00867,-1.10146 2.13376,-0.203549 3.18652,-0.09429 4.37537,0.454125 1.13351,0.522879 1.83114,0.960124 2.12849,1.33403 0.27791,0.349486 1.20247,2.448334 1.20247,2.729762 0,0.205674 0.0605,0.195863 0.63354,-0.10269 0.60356,-0.314463 0.7273,-0.330227 2.61565,-0.333311 1.803,-0.0029 2.08345,0.02781 3.10358,0.340782 0.6168,0.189215 1.42681,0.532621 1.80002,0.763125 0.3732,0.230504 0.88642,0.487953 1.14049,0.572118 0.25405,0.08411 0.65907,0.30762 0.9,0.49658 0.63859,0.500819 1.61091,0.930955 2.11231,0.934441 0.50941,0.0039 1.19454,0.43746 1.19454,0.756535 0,0.414461 -1.07077,1.370394 -2.41877,2.159358 -0.9892,0.578963 -2.31865,0.912078 -4.72505,1.183921 -2.49115,0.281418 -3.75211,0.450267 -5.2313,0.700481 -1.19012,0.201316 -5.68523,0.445763 -8.57821,0.466481 -1.03642,0.0078 -1.8844,0.02986 -1.8844,0.04984 0,0.01997 0.43994,0.43137 0.97765,0.914164 1.74332,1.565307 1.90445,1.901095 1.3005,2.710337 -0.26619,0.356673 -0.46642,0.456817 -1.43438,0.717439 -1.46905,0.395534 -3.04178,0.589253 -4.78131,0.58892 -0.77344,-1.47e-4 -1.71001,0.05434 -2.08126,0.12098 -0.68369,0.122801 -3.35836,0.401125 -6.13132,0.638023 -1.58908,0.135755 -3.32541,0.256392 -8.38133,0.58234 -1.67064,0.107703 -3.67035,0.2518 -4.4438,0.320221 -0.77344,0.06844 -2.49471,0.155739 -3.825042,0.194042 -5.249117,0.151137 -8.060839,0.217932 -11.025104,0.261894 -1.701578,0.02526 -3.54941,0.07245 -4.106293,0.104835 -0.556882,0.03241 -1.779789,0.0078 -2.717579,-0.05522 z"
       class="cloud-shape"
       fill="currentColor" 
       stroke="currentColor"
       id="path1" />
  </g>
</svg>
