<?xml version="1.0" encoding="UTF-8" standalone="no"?>
<!-- Created with Inkscape (http://www.inkscape.org/) -->

<svg
   width="98.5298mm"
   height="22.851627mm"
   viewBox="0 0 98.5298 22.851627"
   version="1.1"
   id="svg1"
   inkscape:version="1.4 (e7c3feb1, 2024-10-09)"
   sodipodi:docname="cloud-thirteen.svg"
   xmlns:inkscape="http://www.inkscape.org/namespaces/inkscape"
   xmlns:sodipodi="http://sodipodi.sourceforge.net/DTD/sodipodi-0.dtd"
   xmlns="http://www.w3.org/2000/svg"
   xmlns:svg="http://www.w3.org/2000/svg">
  <sodipodi:namedview
     id="namedview1"
     pagecolor="#ffffff"
     bordercolor="#000000"
     borderopacity="0.25"
     inkscape:showpageshadow="2"
     inkscape:pageopacity="0.0"
     inkscape:pagecheckerboard="0"
     inkscape:deskcolor="#d1d1d1"
     inkscape:document-units="mm"
     inkscape:zoom="1.926876"
     inkscape:cx="174.37552"
     inkscape:cy="43.074904"
     inkscape:window-width="1512"
     inkscape:window-height="945"
     inkscape:window-x="0"
     inkscape:window-y="37"
     inkscape:window-maximized="0"
     inkscape:current-layer="layer1" />
  <defs
     id="defs1" />
  <g
     inkscape:label="Layer 1"
     inkscape:groupmode="layer"
     id="layer1"
     transform="translate(-1.4265768,-3.3886247)">
    <path
       d="M 49.434709,25.679217 C 12.670849,25.628771 2.9490752,25.549871 2.788154,25.300753 2.3920111,24.687532 2.5864786,23.682487 3.3217998,22.542737 c 1.0226956,-1.585195 2.3504023,-2.079826 5.1543973,-1.92027 1.7090259,0.09725 2.0576919,0.05312 2.0576919,-0.260552 0,-0.698015 1.271227,-2.518043 2.11812,-3.032547 0.461606,-0.280434 1.43179,-0.587142 2.155964,-0.681573 l 1.316686,-0.171692 0.105645,-1.548063 c 0.21614,-3.167017 1.857549,-5.0379463 5.16889,-5.8916646 1.643777,-0.4237943 3.128205,-0.3306764 4.574652,0.2869692 0.331786,0.1416751 0.607316,-0.1558199 1.261196,-1.3617468 1.416433,-2.6122735 3.404287,-3.7907979 6.394057,-3.7907979 2.951335,0 5.252601,1.3726493 6.500187,3.8772044 0.664522,1.3340295 0.734273,1.3929838 1.368014,1.1561367 0.367292,-0.1372657 1.713285,-0.2917524 2.991119,-0.3433049 l 2.323317,-0.093729 0.919117,-1.345095 c 1.109782,-1.6241284 2.137513,-2.337395 4.324733,-3.0014646 2.247135,-0.6822566 6.338693,-0.6965634 8.297037,-0.029009 2.957776,1.0082385 3.867561,1.5963358 5.287864,3.4181765 0.748922,0.9606377 1.36167,1.8298397 1.36167,1.9315597 0,0.10172 1.126158,0.125926 2.502573,0.05379 2.111698,-0.110669 2.753326,-0.04736 4.10805,0.4053763 2.106052,0.703808 3.995189,1.835064 5.596329,3.35119 l 1.298322,1.229382 1.631147,-0.82667 c 1.403704,-0.711405 1.88477,-0.825062 3.450143,-0.81513 2.390604,0.01517 3.932345,0.752643 5.378447,2.57271 0.579668,0.729572 1.206172,1.326494 1.392238,1.326494 0.526875,0 2.658421,1.012192 3.568555,1.694578 0.887259,0.66522 1.606224,1.722665 2.078986,3.057703 0.240476,0.679066 0.222886,1.018271 -0.09109,1.756909 -0.427807,1.006466 -1.051478,1.773578 -1.650005,2.029514 -0.213336,0.09126 -21.287353,0.137166 -46.83115,0.102102 z"
       class="cloud-shape"
       fill="currentColor" 
       stroke="currentColor"
       id="path1" />
  </g>
</svg>
