<?xml version="1.0" encoding="UTF-8" standalone="no"?>
<!-- Created with Inkscape (http://www.inkscape.org/) -->

<svg
   width="134.40811mm"
   height="50.363281mm"
   viewBox="0 0 134.40811 50.363281"
   version="1.1"
   id="svg1"
   xml:space="preserve"
   inkscape:version="1.4 (e7c3feb1, 2024-10-09)"
   sodipodi:docname="cloud-4.svg"
   xmlns:inkscape="http://www.inkscape.org/namespaces/inkscape"
   xmlns:sodipodi="http://sodipodi.sourceforge.net/DTD/sodipodi-0.dtd"
   xmlns="http://www.w3.org/2000/svg"
   xmlns:svg="http://www.w3.org/2000/svg"><sodipodi:namedview
     id="namedview1"
     pagecolor="#ffffff"
     bordercolor="#000000"
     borderopacity="0.25"
     inkscape:showpageshadow="2"
     inkscape:pageopacity="0.0"
     inkscape:pagecheckerboard="0"
     inkscape:deskcolor="#d1d1d1"
     inkscape:document-units="mm"
     inkscape:zoom="0.68210519"
     inkscape:cx="309.33645"
     inkscape:cy="168.5957"
     inkscape:window-width="1104"
     inkscape:window-height="631"
     inkscape:window-x="408"
     inkscape:window-y="81"
     inkscape:window-maximized="0"
     inkscape:current-layer="layer1" /><defs
     id="defs1" /><g
     inkscape:label="Layer 1"
     inkscape:groupmode="layer"
     id="layer1"
     transform="translate(-7.6447227,-7.7442861)"><path
       class="cloud-shape"
       fill="currentColor" 
       stroke="currentColor"
       d="M 80.124377,56.386534 C 78.717048,56.205132 76.859033,55.648654 73.954748,54.538721 72.482373,53.976024 71.77914,53.541704 70.76491,52.568658 70.049325,51.88213 69.262186,51.01649 69.015711,50.645013 68.769235,50.273536 68.132199,49.448584 67.600072,48.811787 67.067936,48.17499 66.575257,47.516462 66.505208,47.348391 c -0.09507,-0.22816 -0.235288,-0.177632 -0.553365,0.199429 -0.962595,1.141076 -5.252289,3.571509 -8.091593,4.584486 -1.593302,0.568441 -2.144298,0.651401 -4.321169,0.650611 -5.709598,-0.002 -11.92217,-1.77923 -14.340193,-4.102133 -0.480084,-0.461198 -0.938268,-1.089683 -1.018203,-1.396635 l -0.145321,-0.558096 -2.346966,1.143134 c -2.265214,1.103315 -2.400708,1.139291 -3.889816,1.032811 -2.061266,-0.147393 -4.555971,-0.99867 -8.81183,-3.006884 -1.942456,-0.916591 -3.711661,-1.666529 -3.931566,-1.666529 -0.485998,0 -3.880445,1.102782 -4.23733,1.376613 -0.532612,0.408666 -3.414006,1.775316 -3.743009,1.775316 -0.485367,0 -1.4906634,-1.024189 -1.4906634,-1.518682 0,-0.227403 0.4992744,-1.235871 1.1094904,-2.24104 0.858945,-1.414873 1.649123,-2.302501 3.499137,-3.930675 3.521434,-3.099163 3.992796,-3.440925 5.785541,-4.194833 2.700228,-1.135532 3.663706,-1.391189 5.255882,-1.394624 l 1.51865,-0.0033 0.537002,-0.975688 c 0.295343,-0.536627 0.858217,-1.351297 1.25081,-1.810376 0.780001,-0.912093 3.275386,-2.239378 5.324755,-2.832225 1.254063,-0.362778 1.279886,-0.387701 1.654493,-1.596455 0.587375,-1.895333 1.089591,-2.659744 2.81894,-4.290632 2.078746,-1.960392 3.95263,-2.951132 6.981443,-3.691157 2.326824,-0.568509 2.64599,-0.590737 7.116403,-0.495595 2.574183,0.05479 4.952866,0.172084 5.285958,0.260665 0.5236,0.139243 0.645478,0.06832 0.899897,-0.523705 0.317505,-0.738833 3.107893,-3.026548 4.468889,-3.663841 0.459641,-0.215233 0.9624,-0.538458 1.117229,-0.718279 0.154829,-0.179821 0.619637,-0.457053 1.032896,-0.616071 0.413259,-0.159019 1.539705,-0.712337 2.503202,-1.229597 1.130949,-0.607156 2.662438,-1.166289 4.321166,-1.577618 2.467203,-0.6118131 2.796867,-0.6377361 8.291989,-0.6520121 4.52603,-0.01176 6.235451,0.07058 8.175179,0.3938031 4.073799,0.678818 7.366976,1.536235 8.72868,2.272613 2.797705,1.512923 4.588075,2.644231 4.806105,3.036906 0.12582,0.226609 0.82943,0.695276 1.56357,1.041481 1.89671,0.89445 6.23795,5.104891 7.30642,7.086305 0.43404,0.804868 0.81918,1.499047 0.85589,1.542619 0.0367,0.04357 0.57284,-0.08196 1.19138,-0.278959 2.63354,-0.838759 7.43629,-0.878381 10.58448,-0.08733 1.20798,0.303536 5.79957,2.383999 6.51839,2.953501 1.19206,0.944443 3.54583,4.061943 4.11682,5.452609 0.79457,1.93522 2.37188,4.54763 2.91485,4.827722 0.22333,0.115197 0.83744,0.275941 1.36471,0.357209 1.31194,0.202209 1.77479,0.562795 1.58994,1.238661 -0.11588,0.423681 -0.60669,0.730455 -2.25446,1.409109 -3.42706,1.411481 -9.30226,2.620123 -12.74295,2.621472 -1.56722,6.14e-4 -1.72373,0.0505 -3.27009,1.04216 -2.80065,1.796046 -5.72421,2.915502 -9.36994,3.587845 -2.69567,0.497131 -6.04068,0.639429 -8.02057,0.341197 -1.81095,-0.272784 -5.062551,-1.48125 -6.603296,-2.454129 -0.484357,-0.305844 -0.918427,-0.515927 -0.964595,-0.466849 -0.04613,0.04907 -0.373414,0.646446 -0.72721,1.327488 -1.057728,2.036063 -4.052454,5.336926 -5.71929,6.303935 -0.533526,0.309522 -1.496091,0.899341 -2.139035,1.310707 -1.169797,0.74846 -2.227078,1.144241 -4.634905,1.735034 -1.403939,0.344474 -1.609772,0.350738 -3.503652,0.106619 z"
       id="path1"
       sodipodi:nodetypes="sssssssscsscssssssssssccsssssssssssssssssssssssssssssssssscssssss" /></g></svg>
