<?xml version="1.0" encoding="UTF-8" standalone="no"?>
<!-- Created with Inkscape (http://www.inkscape.org/) -->

<svg
   width="153.98677mm"
   height="53.706287mm"
   viewBox="0 0 153.98677 53.706287"
   version="1.1"
   id="svg1"
   inkscape:version="1.4 (e7c3feb1, 2024-10-09)"
   sodipodi:docname="cloud-6.svg"
   xmlns:inkscape="http://www.inkscape.org/namespaces/inkscape"
   xmlns:sodipodi="http://sodipodi.sourceforge.net/DTD/sodipodi-0.dtd"
   xmlns="http://www.w3.org/2000/svg"
   xmlns:svg="http://www.w3.org/2000/svg">
  <sodipodi:namedview
     id="namedview1"
     pagecolor="#ffffff"
     bordercolor="#000000"
     borderopacity="0.25"
     inkscape:showpageshadow="2"
     inkscape:pageopacity="0.0"
     inkscape:pagecheckerboard="0"
     inkscape:deskcolor="#d1d1d1"
     inkscape:document-units="mm"
     inkscape:zoom="0.6960481"
     inkscape:cx="320.38016"
     inkscape:cy="150.1333"
     inkscape:window-width="1104"
     inkscape:window-height="480"
     inkscape:window-x="408"
     inkscape:window-y="101"
     inkscape:window-maximized="0"
     inkscape:current-layer="layer1" />
  <defs
     id="defs1" />
  <g
     inkscape:label="Layer 1"
     inkscape:groupmode="layer"
     id="layer1"
     transform="translate(-6.4064754,-4.3740222)">
    <path
      d="m 92.754126,57.236724 c -0.940534,-0.0825 -2.107352,-0.326788 -2.592929,-0.542814 -0.485577,-0.216026 -1.257322,-0.392767 -1.71499,-0.392767 -1.210843,0 -3.764411,-0.785017 -4.757549,-1.462556 -0.472363,-0.322271 -1.114006,-0.664888 -1.425874,-0.761387 -0.311859,-0.09649 -1.003756,-0.433762 -1.537538,-0.749483 l -0.970499,-0.574035 -0.739552,0.570693 c -1.265835,0.976819 -2.072012,1.292851 -5.447341,2.135432 -4.056647,1.012665 -5.805071,1.307397 -7.769135,1.309671 -1.48008,0.0019 -2.150429,-0.112502 -7.58773,-1.292861 -1.379443,-0.299455 -3.123697,-0.670524 -3.876122,-0.824595 -1.701037,-0.348321 -3.522969,-1.325859 -5.403886,-2.899393 -0.795758,-0.665714 -1.835631,-1.415712 -2.310827,-1.66665 -0.731769,-0.386431 -3.964816,-3.841786 -5.509719,-5.88857 l -0.456018,-0.604167 -2.052067,0.767964 c -1.960566,0.733713 -2.199477,0.768101 -5.358173,0.771336 -2.831916,0.0029 -3.551379,-0.0755 -5.016168,-0.546244 -2.856565,-0.91812 -8.991678,-4.140794 -10.374333,-5.449464 -0.376218,-0.356085 -0.991839,-0.808445 -1.368047,-1.005261 -0.832095,-0.435307 -3.294476,-3.233197 -5.593615,-6.355768 -3.1017028,-4.212562 -3.5651633,-5.504559 -2.33301,-6.503736 0.7374464,-0.598007 1.0403754,-0.558411 3.708489,0.484726 1.785388,0.698023 2.162581,0.759735 4.788149,0.783444 2.714177,0.02449 2.98058,-0.01739 5.586184,-0.87865 2.56029,-0.846273 4.616858,-1.602625 6.49822,-2.389868 2.959771,-1.238505 8.079289,-1.869092 10.374333,-1.277839 0.501616,0.129225 1.718138,0.326089 2.70337,0.437483 l 1.79134,0.20252 0.789293,-0.900668 c 2.093104,-2.38845 8.735901,-4.43199 14.457248,-4.447527 2.08023,-0.0058 5.958021,1.190649 7.619649,2.350642 0.501617,0.350187 1.356084,0.869078 1.898824,1.153103 l 0.986794,0.516404 0.125665,-0.495406 c 0.674984,-2.66097 4.078877,-7.506685 7.212053,-10.266942 3.194274,-2.814089 4.401913,-3.5743481 6.887994,-4.3363173 4.312935,-1.3219049 8.16786,-1.418792 12.336155,-0.3100562 1.788064,0.4756028 6.426966,2.8098135 8.401756,4.2276145 2.14287,1.538456 5.06232,4.616727 6.0422,6.370888 l 0.79803,1.428606 1.36804,-0.999032 c 0.75242,-0.549461 2.13757,-1.405801 3.0781,-1.902965 l 1.71006,-0.903933 3.51456,-0.08561 c 3.39292,-0.08259 3.57049,-0.06316 5.13018,0.562938 0.88857,0.356678 1.9747,0.929896 2.41363,1.273826 0.4389,0.343929 1.41364,1.029067 2.16606,1.522539 0.75243,0.493462 1.51862,1.117889 1.70266,1.38761 0.18403,0.269712 0.81616,1.03858 1.40473,1.708589 0.87505,0.996136 1.11555,1.468309 1.31945,2.590415 0.13715,0.754721 0.39851,1.9011 0.58082,2.547516 0.18231,0.646406 0.39338,1.677951 0.46905,2.292321 0.12605,1.023538 0.17529,1.096239 0.58816,0.868446 1.07592,-0.593624 3.95879,-0.954373 6.36154,-0.796065 2.2604,0.14893 6.08237,0.978587 7.15167,1.552447 1.40927,0.756324 4.25692,2.877443 4.61106,3.434619 0.22355,0.351761 1.11099,1.406908 1.97206,2.344763 2.40073,2.614844 2.7226,3.95559 1.28944,5.371097 -0.61779,0.610182 -0.85056,0.681038 -2.33695,0.711345 -1.77393,0.03615 -3.022,0.554057 -6.61481,2.744816 -2.02502,1.234784 -6.97114,3.077572 -10.17661,3.79153 -3.34155,0.744265 -4.26511,0.84571 -5.73767,0.630208 -1.35081,-0.19768 -5.59456,-1.832012 -6.2801,-2.418552 -0.23718,-0.202928 -0.59691,-0.05801 -1.56836,0.631724 -1.64249,1.166201 -2.95038,1.507011 -6.78879,1.769027 -3.08728,0.21075 -4.60632,0.07841 -5.63899,-0.491373 -0.34143,-0.188382 -0.48075,-0.110569 -0.75034,0.419021 -0.91335,1.794272 -3.36788,3.381001 -10.05895,6.50259 -1.25404,0.585054 -2.895707,1.219246 -3.648116,1.409328 -0.752429,0.190072 -1.727164,0.448055 -2.166081,0.573287 -1.31204,0.374372 -2.078221,0.427737 -3.876127,0.269983 z"
      class="cloud-shape"
      fill="currentColor" 
      stroke="currentColor"
      id="path1" />
  </g>
</svg>
