<?xml version="1.0" encoding="UTF-8" standalone="no"?>
<!-- Created with Inkscape (http://www.inkscape.org/) -->

<svg
   width="50.75304mm"
   height="16.668095mm"
   viewBox="0 0 50.75304 16.668095"
   version="1.1"
   id="svg1"
   xml:space="preserve"
   inkscape:version="1.4 (e7c3feb1, 2024-10-09)"
   sodipodi:docname="cloud-fourteen.svg"
   xmlns:inkscape="http://www.inkscape.org/namespaces/inkscape"
   xmlns:sodipodi="http://sodipodi.sourceforge.net/DTD/sodipodi-0.dtd"
   xmlns="http://www.w3.org/2000/svg"
   xmlns:svg="http://www.w3.org/2000/svg"><sodipodi:namedview
     id="namedview1"
     pagecolor="#ffffff"
     bordercolor="#000000"
     borderopacity="0.25"
     inkscape:showpageshadow="2"
     inkscape:pageopacity="0.0"
     inkscape:pagecheckerboard="0"
     inkscape:deskcolor="#d1d1d1"
     inkscape:document-units="mm"
     inkscape:zoom="2.7938919"
     inkscape:cx="91.09157"
     inkscape:cy="45.456304"
     inkscape:window-width="1104"
     inkscape:window-height="525"
     inkscape:window-x="29"
     inkscape:window-y="91"
     inkscape:window-maximized="0"
     inkscape:current-layer="layer1" /><defs
     id="defs1" /><g
     inkscape:label="Layer 1"
     inkscape:groupmode="layer"
     id="layer1"
     transform="translate(-10.061796,-12.483365)"><path
       class="cloud-shape"
       fill="currentColor" 
       stroke="currentColor"
       d="m 10.63,28.373172 c 0,-0.446375 1.211318,-1.899298 2.016091,-2.418215 0.464365,-0.299423 1.456862,-0.617635 2.20555,-0.707138 l 1.361247,-0.162732 0.01315,-1.394356 c 0.02727,-2.889709 1.634965,-4.83189 4.748684,-5.73681 1.838855,-0.534416 2.900538,-0.50422 4.993916,0.14203 0.426636,0.131711 0.582145,0.0036 0.847332,-0.698095 0.453671,-1.200421 2.529392,-3.234353 3.912396,-3.83363 1.531899,-0.663797 4.343122,-0.686616 5.814456,-0.0472 2.142559,0.931124 3.494632,2.487197 4.242569,4.882707 l 0.322919,1.03425 1.187399,-0.567851 c 1.775729,-0.849208 3.07157,-0.961754 4.878376,-0.423696 2.084438,0.620736 2.916996,1.241612 3.636866,2.712201 l 0.607057,1.240111 0.781118,-0.386492 c 1.384941,-0.685254 4.003716,-0.09897 5.545422,1.241495 0.831234,0.722729 1.519512,2.080305 1.950131,3.846474 l 0.362555,1.487027 H 35.343635 C 21.751133,28.583252 10.63,28.488712 10.63,28.373168 Z"
       id="path1"
       sodipodi:nodetypes="sssccsscssscssscssscss" /></g></svg>
