<?xml version="1.0" encoding="UTF-8" standalone="no"?>
<!-- Created with Inkscape (http://www.inkscape.org/) -->

<svg
   width="84.446938mm"
   height="29.231207mm"
   viewBox="0 0 84.446938 29.231207"
   version="1.1"
   id="svg1"
   inkscape:version="1.4 (e7c3feb1, 2024-10-09)"
   sodipodi:docname="cloud-twelve.svg"
   xmlns:inkscape="http://www.inkscape.org/namespaces/inkscape"
   xmlns:sodipodi="http://sodipodi.sourceforge.net/DTD/sodipodi-0.dtd"
   xmlns="http://www.w3.org/2000/svg"
   xmlns:svg="http://www.w3.org/2000/svg">
  <sodipodi:namedview
     id="namedview1"
     pagecolor="#ffffff"
     bordercolor="#000000"
     borderopacity="0.25"
     inkscape:showpageshadow="2"
     inkscape:pageopacity="0.0"
     inkscape:pagecheckerboard="0"
     inkscape:deskcolor="#d1d1d1"
     inkscape:document-units="mm"
     inkscape:zoom="2.1111119"
     inkscape:cx="166.26309"
     inkscape:cy="51.157875"
     inkscape:window-width="1512"
     inkscape:window-height="945"
     inkscape:window-x="0"
     inkscape:window-y="37"
     inkscape:window-maximized="0"
     inkscape:current-layer="layer1" />
  <defs
     id="defs1" />
  <g
     inkscape:label="Layer 1"
     inkscape:groupmode="layer"
     id="layer1"
     transform="translate(-2.4209769,-3.0595728)">
    <path
       d="m 40.83641,31.757438 c -0.04008,-0.04838 -1.094687,-0.144198 -2.343586,-0.213023 -2.518271,-0.138771 -2.718578,-0.202334 -3.097188,-0.982812 -0.372106,-0.767075 -0.395063,-1.336742 -0.08757,-2.172748 0.0674,-0.183251 -0.197559,-0.213352 -2.588569,-0.294104 -1.46501,-0.04944 -2.878349,-0.149249 -3.140753,-0.221686 -0.647852,-0.178867 -1.0781,-0.751469 -0.995624,-1.325037 l 0.06002,-0.417376 h -1.457144 c -0.80143,0 -2.438328,0.06161 -3.637552,0.136908 -1.904168,0.119563 -2.284037,0.110891 -2.998393,-0.06847 -0.948928,-0.238248 -1.184199,-0.468713 -1.260728,-1.234947 -0.04876,-0.488181 -0.01617,-0.587658 0.310634,-0.94824 l 0.365108,-0.402852 -5.975869,0.0039 c -3.286727,0.0019 -7.0001102,-0.04278 -8.2519608,-0.09944 L 3.4611446,23.414554 3.191717,23.061069 C 3.0114455,22.82455 2.9222905,22.552068 2.9222905,22.237616 c 0,-1.257042 1.0622948,-1.757409 4.749642,-2.237188 1.1577525,-0.15064 2.104945,-0.196347 3.0770025,-0.148496 0.772398,0.03805 2.049256,0.03708 2.837462,-0.0019 l 1.433102,-0.07127 0.21343,-0.472131 c 0.272372,-0.602519 0.968036,-1.274415 1.754756,-1.694784 0.765057,-0.4088 2.440491,-1.013599 3.33365,-1.203388 1.007514,-0.214086 3.726159,-0.309555 4.236778,-0.148785 l 0.432486,0.136164 -0.09322,-0.404223 c -0.05128,-0.222324 -0.09484,-0.775689 -0.09681,-1.229693 -0.0049,-1.125504 0.246939,-1.716242 0.968531,-2.271945 0.507088,-0.390519 0.660886,-0.442088 1.420682,-0.476322 0.505061,-0.02279 1.101925,0.03708 1.465668,0.146854 0.678441,0.204816 0.785004,0.180567 0.785004,-0.178616 0,-0.134396 0.229683,-0.777079 0.510407,-1.428183 0.442637,-1.0266546 0.669595,-1.3662723 1.709319,-2.5577916 1.063347,-1.2185878 2.640985,-2.5735421 2.996503,-2.5735421 0.0609,0 0.359749,-0.1783552 0.664113,-0.3963426 0.726634,-0.5204254 2.220603,-1.0629846 3.406607,-1.2371679 1.595382,-0.2343078 3.899232,-0.3017233 4.69942,-0.1375157 0.40001,0.082084 1.115756,0.1930145 1.590546,0.2465142 0.474789,0.0535 0.927949,0.1521364 1.007018,0.2191946 0.07907,0.06702 0.496221,0.2838675 0.927002,0.4817877 1.0592,0.4866549 2.166094,1.2208766 2.573491,1.7070293 0.184621,0.2203147 0.575526,0.6000569 0.868679,0.8438769 0.293152,0.2438102 0.658646,0.685251 0.812207,0.9809677 0.498941,0.9608135 0.590005,1.0074954 1.379579,0.7073172 0.428419,-0.1628749 0.962133,-0.2573493 1.439617,-0.2548289 0.885885,0.00483 2.825938,0.2985076 3.125444,0.4733669 0.113763,0.06644 0.400428,0.1602385 0.637035,0.2084849 0.236607,0.048285 0.815642,0.2920178 1.286746,0.5417098 0.671259,0.3557826 1.054125,0.6782586 1.769873,1.4907126 1.152531,1.308253 1.401401,1.838596 1.469832,3.132199 0.04947,0.935107 0.06521,0.984773 0.289164,0.9122 0.130266,-0.0422 0.797705,-0.142914 1.483198,-0.223791 2.749157,-0.32435 5.595957,0.673508 7.035726,2.466166 1.310558,1.631791 1.507057,1.909256 1.61616,2.2822 l 0.114994,0.39304 4.280333,9.66e-4 c 4.746384,9.65e-4 5.647268,0.09 7.145791,0.703435 1.546001,0.632823 2.157897,1.280248 1.907803,2.018573 -0.223495,0.659796 -0.919009,0.99245 -2.087875,0.998612 -0.307704,0.0019 -1.314721,0.114937 -2.237825,0.251806 -2.39253,0.35475 -6.945779,0.744738 -9.958286,0.852925 -0.861566,0.0309 -1.610023,0.103456 -1.663253,0.161137 -0.05328,0.05765 0.05407,0.192908 0.238432,0.300497 1.138132,0.664208 1.236146,2.155056 0.161948,2.463336 -0.228526,0.06557 -0.969357,0.156762 -1.646293,0.202614 -0.676945,0.04587 -1.482559,0.173787 -1.790254,0.284273 -0.441384,0.1585 -1.249514,0.212164 -3.829082,0.254288 l -3.269624,0.0534 -0.07409,0.462204 c -0.163798,1.021865 -0.590932,1.532479 -1.534658,1.834569 -1.424243,0.455916 -2.197015,0.508306 -7.684579,0.520927 -2.984691,0.0068 -6.43373,0.05978 -7.66453,0.117526 -1.230801,0.05775 -2.270607,0.06547 -2.310682,0.01719 z"
       class="cloud-shape"
       fill="currentColor" 
       stroke="currentColor"
       id="path1" />
  </g>
</svg>
