<?xml version="1.0" encoding="UTF-8" standalone="no"?>
<!-- Created with Inkscape (http://www.inkscape.org/) -->

<svg
   width="77.351242mm"
   height="38.375031mm"
   viewBox="0 0 77.351242 38.375031"
   version="1.1"
   id="svg1"
   xml:space="preserve"
   inkscape:version="1.4 (e7c3feb1, 2024-10-09)"
   sodipodi:docname="cloud-three.svg"
   xmlns:inkscape="http://www.inkscape.org/namespaces/inkscape"
   xmlns:sodipodi="http://sodipodi.sourceforge.net/DTD/sodipodi-0.dtd"
   xmlns="http://www.w3.org/2000/svg"
   xmlns:svg="http://www.w3.org/2000/svg"><sodipodi:namedview
     id="namedview1"
     pagecolor="#ffffff"
     bordercolor="#000000"
     borderopacity="0.25"
     inkscape:showpageshadow="2"
     inkscape:pageopacity="0.0"
     inkscape:pagecheckerboard="0"
     inkscape:deskcolor="#d1d1d1"
     inkscape:document-units="mm"
     inkscape:zoom="2.0502957"
     inkscape:cx="136.07793"
     inkscape:cy="87.792214"
     inkscape:window-width="1512"
     inkscape:window-height="945"
     inkscape:window-x="0"
     inkscape:window-y="37"
     inkscape:window-maximized="0"
     inkscape:current-layer="layer1" /><defs
     id="defs1" /><g
     inkscape:label="Layer 1"
     inkscape:groupmode="layer"
     id="layer1"
     transform="translate(-34.66504,-3.3963908)"><path
       class="cloud-shape"
       fill="currentColor" 
       stroke="currentColor"
       d="m 89.273772,40.832482 c -1.316515,-0.120515 -3.138878,-0.478785 -3.85148,-0.7572 -0.649028,-0.253573 -0.901612,-0.437991 -1.415001,-1.03311 -0.34372,-0.398445 -0.73772,-0.984263 -0.875556,-1.301805 -0.180379,-0.415559 -0.298602,-0.556181 -0.421855,-0.501789 -0.09419,0.04155 -0.797444,0.273165 -1.5628,0.514673 -1.304238,0.411548 -1.520789,0.443013 -3.451062,0.501351 -2.974134,0.08986 -4.436374,-0.139441 -5.822821,-0.91327 -1.322923,-0.738362 -1.635924,-1.063632 -1.635924,-1.70004 0,-0.374927 0.07744,-0.571362 0.341988,-0.867464 l 0.341989,-0.382769 -1.037767,0.08414 c -2.31758,0.187811 -4.096715,0.409909 -7.049292,0.880004 -2.129426,0.33903 -4.853958,0.469028 -8.905965,0.424936 l -4.007683,-0.04364 -0.620569,-0.341117 C 48.199921,34.790705 48.121709,34.075795 49.061947,33.21969 l 0.588625,-0.535951 h -1.949613 c -1.072288,0 -3.290915,0.117419 -4.930283,0.260929 -3.590029,0.314264 -5.537482,0.279996 -6.214125,-0.109377 -0.516714,-0.29733 -0.950308,-0.791325 -1.221127,-1.391217 -0.258652,-0.572934 -0.17922,-2.245749 0.143482,-3.021632 0.639049,-1.536501 0.804378,-1.965118 0.804378,-2.085357 0,-0.07257 0.164499,-0.342387 0.365553,-0.599577 0.201055,-0.25719 0.495327,-0.663868 0.65394,-0.903727 0.378806,-0.572841 1.714069,-1.408712 2.824415,-1.768074 0.75606,-0.244698 1.142752,-0.287251 2.612917,-0.287535 1.743561,-3.36e-4 2.168051,0.07124 3.441039,0.580204 0.771185,0.308336 1.161406,0.622923 1.369647,1.104179 l 0.166296,0.384318 0.19457,-0.785312 c 0.325625,-1.31427 0.900962,-2.379726 1.963777,-3.63668 1.39043,-1.644415 1.868595,-1.975817 3.542346,-2.455088 1.668814,-0.477859 2.531555,-0.455029 4.032771,0.106714 l 0.961866,0.359921 0.07608,-0.757453 c 0.08827,-0.87892 1.361487,-5.363103 1.860009,-6.550849 0.423887,-1.00992 1.525695,-3.1156839 1.630235,-3.1156839 0.0428,0 0.396838,-0.3114118 0.786752,-0.6920266 0.842811,-0.8227122 2.471427,-1.7682282 4.089638,-2.3743004 3.030363,-1.1349682 7.046702,-0.7521312 10.133809,0.9659534 1.767874,0.9838844 3.989787,3.3874935 4.569017,4.9426445 0.09417,0.252833 0.265683,0.608537 0.381143,0.790455 0.251447,0.39618 0.764657,2.041519 0.765749,2.454978 6.1e-4,0.230559 0.04265,0.274467 0.195595,0.204274 0.64413,-0.295628 2.006462,-0.711267 2.897432,-0.883989 1.910678,-0.370402 3.651534,0.0424 6.259012,1.48414 1.010898,0.558954 1.32474,0.814757 2.321705,1.892347 1.178865,1.274203 1.603771,1.97374 1.744932,2.872741 0.04241,0.270339 0.148298,0.743848 0.235213,1.052239 l 0.158026,0.560711 1.155341,-0.03895 c 1.059346,-0.03571 1.241736,-0.0057 2.195206,0.360675 1.408675,0.541348 2.631125,1.245675 3.088665,1.779567 0.76482,0.892448 1.30443,2.103931 1.425,3.199369 l 0.0885,0.804856 1.33589,0.06943 c 1.24081,0.06448 1.40713,0.104142 2.33655,0.557121 0.87183,0.424907 1.12623,0.627039 1.97601,1.570063 1.00136,1.11122 1.03506,1.184976 0.97811,2.140394 -0.0281,0.470896 -0.38888,1.35919 -0.74388,1.8314 -0.8589,1.142486 -3.98114,1.891349 -5.43739,1.304149 -0.24491,-0.09876 -0.54548,-0.181436 -0.66794,-0.183732 -0.12246,-0.0019 -0.59555,-0.195664 -1.05131,-0.429711 l -0.82865,-0.425527 -0.69135,0.723868 c -0.67541,0.707153 -1.61762,1.241494 -2.553895,1.448307 -0.445673,0.09845 -1.979489,-0.144854 -2.382044,-0.377853 l -0.317612,-0.183837 -0.186955,0.639772 c -0.102828,0.351876 -0.300306,0.812842 -0.438841,1.024371 -0.138532,0.21152 -0.386434,0.649025 -0.550892,0.972228 -0.164458,0.323202 -0.485757,0.740553 -0.713999,0.927449 -0.228242,0.186887 -0.54239,0.468533 -0.698107,0.62586 -0.155717,0.157327 -0.806965,0.49064 -1.447219,0.740686 -1.165027,0.454992 -1.961537,0.57526 -3.112277,0.469924 z"
       id="path1"
       sodipodi:nodetypes="cssscscsssccsccsscsscssssssssscsssscssssssssssssscscscsccsssssscscssscsssssscc" /></g></svg>
