<?xml version="1.0" encoding="UTF-8" standalone="no"?>
<!-- Created with Inkscape (http://www.inkscape.org/) -->

<svg
   width="64.293747mm"
   height="16.779821mm"
   viewBox="0 0 64.293747 16.779821"
   version="1.1"
   id="svg1"
   inkscape:version="1.4 (e7c3feb1, 2024-10-09)"
   sodipodi:docname="cloud-ten.svg"
   xmlns:inkscape="http://www.inkscape.org/namespaces/inkscape"
   xmlns:sodipodi="http://sodipodi.sourceforge.net/DTD/sodipodi-0.dtd"
   xmlns="http://www.w3.org/2000/svg"
   xmlns:svg="http://www.w3.org/2000/svg">
  <sodipodi:namedview
     id="namedview1"
     pagecolor="#ffffff"
     bordercolor="#000000"
     borderopacity="0.25"
     inkscape:showpageshadow="2"
     inkscape:pageopacity="0.0"
     inkscape:pagecheckerboard="0"
     inkscape:deskcolor="#d1d1d1"
     inkscape:document-units="mm"
     inkscape:zoom="3.1374739"
     inkscape:cx="116.81372"
     inkscape:cy="50.040256"
     inkscape:window-width="1512"
     inkscape:window-height="917"
     inkscape:window-x="0"
     inkscape:window-y="65"
     inkscape:window-maximized="0"
     inkscape:current-layer="layer1" />
  <defs
     id="defs1" />
  <g
     inkscape:label="Layer 1"
     inkscape:groupmode="layer"
     id="layer1"
     transform="translate(-3.6912014,-5.5551519)">
    <path
       d="m 48.368445,21.792471 c -3.583784,-0.04069 -6.663942,-0.13089 -6.844806,-0.200352 -0.26312,-0.101054 -0.269267,-0.200257 -0.03074,-0.496298 0.377217,-0.468267 0.385982,-0.468718 -2.73782,0.141818 -3.122745,0.610321 -4.112496,0.5745 -4.213458,-0.152512 -0.06777,-0.488301 -0.153135,-0.50063 -1.930648,-0.279022 -2.138412,0.266609 -4.228655,0.31786 -9.401334,0.230497 -3.832538,-0.06474 -4.426766,-0.263462 -2.835646,-0.948375 0.464561,-0.199976 0.84477,-0.390057 0.844907,-0.42241 4.56e-4,-0.106138 -9.976553,0.261958 -11.6484698,0.429768 -1.9154892,0.192251 -2.5903579,0.02969 -2.5903579,-0.623927 0,-0.715125 0.8383389,-1.130384 3.4993137,-1.733328 L 12.89271,17.191505 12.8181,15.912988 c -0.06157,-1.055734 0.04168,-1.46154 0.592887,-2.328791 0.747237,-1.175742 1.537106,-1.56032 3.204671,-1.56032 1.093487,0 1.9925,0.413962 2.612003,1.20272 0.248379,0.316254 0.301656,0.0889 0.301656,-1.287499 0,-2.7469833 0.850525,-4.2388004 3.016656,-5.2911706 1.386697,-0.6737027 3.322845,-0.7808839 4.532717,-0.250926 0.938983,0.4112938 2.990943,2.246587 3.173806,2.8386869 0.107475,0.3479864 0.421444,0.4228424 1.710234,0.4077414 1.474808,-0.01729 1.621741,-0.07151 2.234878,-0.8248424 0.752909,-0.9250515 2.173062,-1.261978 3.424664,-0.8124858 0.631808,0.2269074 0.911966,0.1824412 1.766577,-0.2803852 0.804883,-0.4359043 1.416359,-0.5493345 2.946331,-0.5465812 2.189892,0.00376 2.919031,0.3054281 4.60058,1.9022746 1.722703,1.6359283 1.962646,3.4305053 0.695017,5.1979713 l -0.611302,0.852338 0.835511,0.2063 c 0.984497,0.24308 1.5628,0.827465 1.654248,1.671637 0.05865,0.541817 0.237416,0.639178 1.634557,0.890452 0.862765,0.155171 2.654653,0.565347 3.98198,0.91152 1.505792,0.392716 3.683853,0.719193 5.791967,0.86819 3.327962,0.235205 4.705967,0.581688 4.705967,1.18327 0,0.425765 -0.668384,0.550264 -3.861307,0.71923 -4.846354,0.25648 -6.724483,0.285948 -13.393924,0.210153 z"
       class="cloud-shape"
       fill="currentColor" 
       stroke="currentColor"
       id="path1" />
  </g>
</svg>
