<?xml version="1.0" encoding="UTF-8" standalone="no"?>
<!-- Created with Inkscape (http://www.inkscape.org/) -->

<svg
   width="166.78267mm"
   height="63.721733mm"
   viewBox="0 0 166.78267 63.721733"
   version="1.1"
   id="svg1"
   inkscape:version="1.4 (e7c3feb1, 2024-10-09)"
   sodipodi:docname="cloud-9.svg"
   xmlns:inkscape="http://www.inkscape.org/namespaces/inkscape"
   xmlns:sodipodi="http://sodipodi.sourceforge.net/DTD/sodipodi-0.dtd"
   xmlns="http://www.w3.org/2000/svg"
   xmlns:svg="http://www.w3.org/2000/svg">
  <sodipodi:namedview
     id="namedview1"
     pagecolor="#ffffff"
     bordercolor="#000000"
     borderopacity="0.25"
     inkscape:showpageshadow="2"
     inkscape:pageopacity="0.0"
     inkscape:pagecheckerboard="0"
     inkscape:deskcolor="#d1d1d1"
     inkscape:document-units="mm"
     inkscape:zoom="0.61092275"
     inkscape:cx="279.90446"
     inkscape:cy="181.69237"
     inkscape:window-width="1104"
     inkscape:window-height="477"
     inkscape:window-x="701"
     inkscape:window-y="253"
     inkscape:window-maximized="0"
     inkscape:current-layer="layer1" />
  <defs
     id="defs1" />
  <g
     inkscape:label="Layer 1"
     inkscape:groupmode="layer"
     id="layer1"
     transform="translate(-7.6845107,-7.3440252)">
    <path
       d="m 50.338212,69.627987 c -1.186788,-0.128391 -5.630244,-0.955547 -7.860897,-1.46331 -1.863244,-0.424129 -6.832034,-2.489609 -9.390528,-3.903558 -0.844308,-0.466604 -2.247088,-1.565506 -3.117287,-2.442003 -1.887349,-1.901003 -4.274259,-3.705844 -6.829708,-5.164214 -1.028764,-0.587101 -1.93966,-1.176839 -2.024225,-1.310526 -0.252132,-0.398547 -3.476379,-1.272003 -4.695479,-1.272003 -0.622525,0 -1.749972,0.216534 -2.505426,0.481193 -0.755464,0.264649 -1.992747,0.486718 -2.749526,0.493471 -1.2046581,0.01074 -1.4111641,-0.06321 -1.6587111,-0.593979 -0.248922,-0.533758 -0.05803,-0.979748 1.5966791,-3.729344 2.21891,-3.687225 2.461028,-3.96726 4.75597,-5.500661 2.530384,-1.690732 3.281066,-2.032847 5.421842,-2.470991 2.759463,-0.56477 5.257269,-0.242059 8.195021,1.058788 l 1.348397,0.597077 0.397137,-1.334631 c 0.419582,-1.410103 2.836487,-5.392653 3.99602,-6.584599 1.707321,-1.755067 6.383587,-3.480648 9.436526,-3.482163 l 1.91748,-9.5e-4 0.468271,-1.112629 c 0.544215,-1.293049 2.771686,-3.789459 4.311371,-4.831901 2.711285,-1.835671 8.726315,-2.740849 11.129926,-1.674905 l 1.102459,0.488915 0.115865,-0.557941 c 0.06372,-0.306864 0.171574,-1.51858 0.239663,-2.692695 0.108069,-1.863392 0.258642,-2.395721 1.18454,-4.187603 0.583409,-1.129051 1.813613,-3.038044 2.733798,-4.242201 1.59125,-2.082323 1.797639,-2.251875 4.221367,-3.468003 3.13715,-1.5741011 5.595124,-2.0833317 10.05589,-2.0833317 4.786288,0 8.186881,1.1193626 10.126638,3.3333687 l 0.93879,1.071517 1.234348,-0.616233 c 1.11972,-0.559005 1.547991,-0.616232 4.611413,-0.616232 4.036734,0 5.183704,0.270213 8.200974,1.932053 3.79361,2.08943 7.49152,6.381722 7.91449,9.186637 0.1487,0.986079 0.26536,1.19023 0.60685,1.062011 1.04137,-0.390998 4.09685,-0.886877 5.46468,-0.886877 2.45767,0 6.72882,1.71078 9.16692,3.671753 1.52159,1.223822 3.17598,3.163117 4.0125,4.703491 0.26532,0.488579 0.79477,1.288032 1.17656,1.776553 0.38179,0.488532 0.77257,1.230853 0.86841,1.649611 0.3849,1.681744 0.27925,1.603797 2.14907,1.58538 1.83959,-0.01813 4.42372,0.571293 6.15978,1.404971 1.98163,0.951614 4.87175,3.801516 5.38718,5.312241 0.0535,0.156919 0.86389,-0.01209 2.02695,-0.422767 2.51478,-0.887979 4.31122,-0.893648 7.65276,-0.02408 2.75285,0.716336 2.75112,0.715492 6.22129,3.022849 2.39741,1.594062 6.25623,5.437314 6.85828,6.830601 0.78338,1.812966 -0.305,3.944143 -2.31468,4.532395 -0.7485,0.219095 -1.24822,0.191364 -2.38873,-0.132565 -2.87357,-0.816133 -4.05288,-0.444013 -6.81971,2.151887 -1.36091,1.276838 -6.2775,3.711273 -8.15255,4.036708 -0.8013,0.139068 -2.09984,0.379659 -2.88565,0.53465 -3.34924,0.660568 -6.87351,-0.332207 -8.21621,-2.314465 -0.37683,-0.55631 -0.77856,-1.011479 -0.89271,-1.011479 -0.11416,0 -0.46817,0.371171 -0.78667,0.824824 -0.74547,1.0618 -1.38896,1.590407 -2.83716,2.330638 -0.64505,0.329713 -1.88396,1.121751 -2.75315,1.760093 -1.8909,1.388693 -4.37085,2.573167 -6.24572,2.98309 -1.11507,0.243796 -2.12657,0.21735 -5.46048,-0.142741 -6.7185,-0.72567 -8.79595,-1.257769 -9.43006,-2.415347 -0.25445,-0.464493 -0.37954,-0.425203 -2.28073,0.716327 -1.10634,0.66427 -2.36221,1.339302 -2.79084,1.500077 -1.84961,0.693757 -5.35043,1.371734 -7.27312,1.408549 -3.405389,0.06523 -7.492502,-1.190431 -8.514344,-2.615738 -0.195177,-0.272236 -0.895443,-0.959853 -1.556141,-1.528038 l -1.201289,-1.033071 -1.179434,0.879557 c -2.039423,1.520893 -4.302211,2.457169 -6.549289,2.709923 -1.12296,0.126311 -2.944919,0.358749 -4.048793,0.516541 -3.957168,0.565623 -8.254863,-0.617873 -10.0742,-2.77423 l -0.742111,-0.879595 -1.251658,1.086547 c -1.621804,1.407858 -5.416157,3.190992 -7.827927,3.678688 -1.746496,0.353157 -5.785283,0.455208 -8.100962,0.204669 z"
       class="cloud-shape"
       fill="currentColor" 
       stroke="currentColor"
       id="path1" />
  </g>
</svg>
