<?xml version="1.0" encoding="UTF-8" standalone="no"?>
<!-- Created with Inkscape (http://www.inkscape.org/) -->

<svg
   width="81.213051mm"
   height="40.430397mm"
   viewBox="0 0 81.213051 40.430397"
   version="1.1"
   id="svg1"
   xml:space="preserve"
   inkscape:version="1.4 (e7c3feb1, 2024-10-09)"
   sodipodi:docname="cloud-1.svg"
   xmlns:inkscape="http://www.inkscape.org/namespaces/inkscape"
   xmlns:sodipodi="http://sodipodi.sourceforge.net/DTD/sodipodi-0.dtd"
   xmlns="http://www.w3.org/2000/svg"
   xmlns:svg="http://www.w3.org/2000/svg"><sodipodi:namedview
     id="namedview1"
     pagecolor="#ffffff"
     bordercolor="#000000"
     borderopacity="0.25"
     inkscape:showpageshadow="2"
     inkscape:pageopacity="0.0"
     inkscape:pagecheckerboard="0"
     inkscape:deskcolor="#d1d1d1"
     inkscape:document-units="mm"
     inkscape:zoom="1.1270197"
     inkscape:cx="116.23577"
     inkscape:cy="129.98885"
     inkscape:window-width="1104"
     inkscape:window-height="652"
     inkscape:window-x="391"
     inkscape:window-y="68"
     inkscape:window-maximized="0"
     inkscape:current-layer="layer1" /><defs
     id="defs1" /><g
     inkscape:label="Layer 1"
     inkscape:groupmode="layer"
     id="layer1"
     transform="translate(-6.180613,-7.068574)"><path
       class="cloud-shape"
       fill="currentColor" 
       stroke="currentColor"
       d="m 22.229508,46.580389 c -2.129725,-0.359762 -3.686109,-0.996632 -5.041973,-2.063164 -0.725212,-0.570457 -1.781103,-1.403272 -2.346426,-1.8507 -2.099705,-1.661827 -3.520181,-1.961823 -4.408428,-0.931034 -0.6171876,0.716232 -1.3787716,0.813712 -1.6098656,0.206058 -0.2468,-0.648953 0.309829,-3.415774 0.945599,-4.700263 0.7548336,-1.525043 1.8919476,-2.499227 3.4687036,-2.971698 1.598083,-0.47886 2.683374,-0.485026 4.433037,-0.02519 0.752,0.197639 1.508782,0.393899 1.681737,0.436135 0.195418,0.04772 0.444043,-0.420402 0.65675,-1.236558 0.458197,-1.758111 0.934796,-2.637675 2.161542,-3.989131 1.613672,-1.777717 2.982925,-2.547948 4.529533,-2.547948 h 1.304621 l -0.04254,-2.679115 c -0.03739,-2.354747 0.04177,-2.927362 0.653829,-4.729513 0.383002,-1.127719 1.276636,-3.090133 1.985852,-4.360922 1.22923,-2.202562 1.393415,-2.381103 3.513812,-3.821045 1.739983,-1.181605 2.676029,-1.6301401 4.298721,-2.0598598 1.140914,-0.3021356 2.574548,-0.5471618 3.185854,-0.5445027 1.929363,0.00838 5.939026,0.7251073 6.877738,1.2293725 0.496383,0.266651 1.318687,0.672776 1.82734,0.902502 0.518535,0.234186 1.696492,1.281394 2.681334,2.383712 0.96608,1.081318 1.89802,1.966031 2.070981,1.966031 0.172959,0 0.946512,-0.291967 1.719005,-0.648816 1.307348,-0.603922 1.605444,-0.642722 4.308147,-0.560745 2.649513,0.08037 3.030045,0.153501 4.34833,0.835731 1.453499,0.752208 3.021513,2.429567 4.43685,4.746265 0.97316,1.592917 1.891299,4.75053 2.188865,7.527821 l 0.273697,2.554505 h 0.696551 c 1.182136,0 2.959042,1.11622 4.554267,2.860903 l 1.525501,1.668424 1.586619,-0.171444 c 2.402443,-0.259601 3.881409,0.717187 3.881409,2.563496 0,1.199567 -0.48075,1.969468 -2.383951,3.817823 -3.415913,3.317468 -6.515635,3.637579 -13.300048,1.373509 -0.543389,-0.181335 -1.154691,-0.39845 -1.358458,-0.482477 -0.255466,-0.105344 -0.575194,0.188118 -1.029843,0.945239 -1.128403,1.879102 -3.811667,3.239636 -7.684144,3.896196 -2.748667,0.466023 -4.834462,-0.07796 -8.247591,-2.150979 l -0.78359,-0.475927 -2.303811,1.225163 c -2.215617,1.17826 -2.395399,1.229184 -4.696251,1.330226 -4.347237,0.19091 -6.706084,-0.560807 -9.449707,-3.011434 l -1.221483,-1.091039 -1.413791,1.524979 c -1.40997,1.520857 -2.397938,2.103672 -5.034959,2.970185 -1.33604,0.439017 -1.601132,0.449748 -3.439364,0.139226 z"
       id="path1"
       sodipodi:nodetypes="sssssssssssscssssssssssssssscsscsssssssscssscsss" /></g></svg>
