<?xml version="1.0" encoding="UTF-8" standalone="no"?>
<!-- Created with Inkscape (http://www.inkscape.org/) -->

<svg
   width="176.46541mm"
   height="65.222046mm"
   viewBox="0 0 176.46541 65.222046"
   version="1.1"
   id="svg1"
   inkscape:version="1.4 (e7c3feb1, 2024-10-09)"
   sodipodi:docname="cloud-5.svg"
   xmlns:inkscape="http://www.inkscape.org/namespaces/inkscape"
   xmlns:sodipodi="http://sodipodi.sourceforge.net/DTD/sodipodi-0.dtd"
   xmlns="http://www.w3.org/2000/svg"
   xmlns:svg="http://www.w3.org/2000/svg">
  <sodipodi:namedview
     id="namedview1"
     pagecolor="#ffffff"
     bordercolor="#000000"
     borderopacity="0.25"
     inkscape:showpageshadow="2"
     inkscape:pageopacity="0.0"
     inkscape:pagecheckerboard="0"
     inkscape:deskcolor="#d1d1d1"
     inkscape:document-units="mm"
     inkscape:zoom="0.56690871"
     inkscape:cx="245.18939"
     inkscape:cy="82.905764"
     inkscape:window-width="1104"
     inkscape:window-height="405"
     inkscape:window-x="408"
     inkscape:window-y="38"
     inkscape:window-maximized="0"
     inkscape:current-layer="layer1" />
  <defs
     id="defs1" />
  <g
     inkscape:label="Layer 1"
     inkscape:groupmode="layer"
     id="layer1"
     transform="translate(-6.534896,-6.3912476)">
    <path
       d="m 83.358155,69.922223 c -0.91425,-0.298965 -2.435645,-1.041154 -3.380884,-1.649308 l -1.718602,-1.105716 -1.008626,0.587871 c -1.319592,0.76914 -4.42478,1.650006 -7.080085,2.008454 -1.8045,0.243601 -2.481745,0.229627 -4.524505,-0.09342 C 64.324155,69.461177 62.733454,69.069586 62.11057,68.799888 61.487676,68.530199 60.235558,68.10279 59.328069,67.85009 55.942471,66.907356 48.500577,63.208911 47.454799,61.949362 46.971155,61.366859 46.563128,61.4634 44.987382,62.533153 c -2.689351,1.825761 -3.696859,2.156803 -6.895481,2.26571 -2.54871,0.08673 -2.973338,0.04274 -4.007071,-0.415799 -0.635938,-0.282074 -2.110881,-0.883086 -3.27764,-1.335585 -4.001887,-1.552031 -6.379663,-3.065395 -9.554843,-6.081318 -1.27997,-1.215766 -2.279913,-1.9697 -2.748024,-2.071959 -0.780332,-0.170463 -3.49238,0.302619 -5.229691,0.912255 -1.4795,0.519163 -3.8516604,0.482473 -4.3519164,-0.06735 -0.5503141,-0.604781 -0.4842419,-1.629917 0.15981,-2.47952 0.302441,-0.398985 1.0116054,-1.516621 1.5759144,-2.483639 1.660213,-2.844995 3.981266,-5.001963 7.066854,-6.567251 1.609204,-0.816335 4.624134,-1.032084 6.896853,-0.493549 0.974805,0.230983 2.070014,0.635608 2.433794,0.899163 l 0.661427,0.479197 1.309204,-0.849866 c 0.720062,-0.467422 1.819632,-1.243694 2.443486,-1.725043 1.297561,-1.00115 1.9575,-1.202644 5.229877,-1.596803 2.708667,-0.326255 5.194401,-0.06154 6.72785,0.716547 0.502667,0.255046 0.971199,0.463721 1.041182,0.463721 0.06997,0 0.127244,-0.996993 0.127244,-2.21554 0,-2.854201 0.303764,-4.262234 1.422463,-6.593542 1.171062,-2.440447 3.279757,-4.491241 6.004741,-5.839859 1.746807,-0.864518 2.02857,-0.932393 3.886863,-0.936347 l 2.00354,-0.0039 -0.08536,-2.49081 c -0.093,-2.714623 -0.05468,-2.852069 2.000443,-7.15927 0.726726,-1.523113 1.047933,-1.883635 3.45019,-3.872407 3.046456,-2.522092 3.899035,-3.050975 7.090062,-4.3981783 2.727287,-1.1514275 5.346576,-1.5458677 8.899609,-1.3402262 3.281492,0.1899325 7.07723,1.6197415 9.380271,3.5334185 0.556792,0.462664 1.110762,0.841211 1.231029,0.841211 0.453724,0 2.270407,1.90294 2.680796,2.808082 0.235104,0.518532 0.532076,0.942782 0.659948,0.942782 0.127861,0 0.686721,-0.416429 1.241906,-0.925406 1.810371,-1.659668 6.585298,-3.79614 10.010558,-4.479069 2.61759,-0.521895 7.08238,-0.907584 10.63011,-0.918273 1.86914,-0.0058 2.67944,0.118268 4.59634,0.702815 1.27994,0.390321 2.91055,1.050079 3.62357,1.466149 0.71302,0.416061 2.01634,1.125272 2.89625,1.576026 0.87991,0.450745 2.37547,1.399748 3.32345,2.108901 2.00533,1.500088 6.86128,6.3531 7.38692,7.382432 0.19812,0.387957 0.38321,0.732876 0.41132,0.766494 0.0281,0.03363 0.50527,-0.09826 1.06035,-0.293044 2.31075,-0.810849 6.30664,-0.285097 9.30687,1.224546 1.4536,0.731413 4.15912,2.860025 4.92267,3.872989 1.87666,2.489657 2.9844,6.016495 2.9844,9.50174 0,1.569872 0.0406,1.723706 0.4125,1.563137 2.51439,-1.085548 4.52048,-1.291965 6.89451,-0.709385 2.62079,0.643128 5.08405,1.369541 5.68981,1.677926 0.81483,0.41482 4.22824,4.080519 5.32948,5.723413 0.47535,0.709143 1.31074,1.764078 1.85643,2.344293 0.54569,0.580206 1.21359,1.483807 1.48422,2.007999 0.27062,0.524192 0.79876,1.17861 1.17365,1.454259 0.37488,0.275659 1.23292,1.321029 1.90678,2.323051 1.05974,1.575832 1.20734,1.933447 1.09304,2.648249 -0.078,0.487764 -0.39209,1.050962 -0.76654,1.374426 -0.61962,0.535249 -0.71462,0.54495 -4.07388,0.416196 -3.46301,-0.132727 -8.44466,0.258961 -10.51091,0.826452 -0.51856,0.142418 -2.53388,0.282869 -4.47848,0.312106 -3.67946,0.05534 -5.37107,-0.210855 -6.12873,-0.964393 -0.20665,-0.205534 -0.40162,-0.334773 -0.43325,-0.28719 -0.0317,0.04758 -0.34619,0.534716 -0.69903,1.082515 -0.88139,1.368408 -2.72209,2.511481 -4.98136,3.093412 -1.59417,0.410624 -2.59097,0.481969 -6.73388,0.481969 -5.11429,0 -6.45957,-0.197191 -8.08966,-1.185734 -0.41131,-0.249435 -0.88843,-0.453913 -1.06025,-0.454398 -0.49691,-9.69e-4 -5.04853,-1.824026 -5.69803,-2.281699 -0.32401,-0.228319 -0.90739,-0.525656 -1.29641,-0.660757 -0.66624,-0.231381 -0.79149,-0.168419 -2.15805,1.084657 -1.44684,1.326698 -3.80755,2.622191 -6.42973,3.528457 -2.33819,0.808117 -5.92825,1.197518 -10.05667,1.09082 l -3.79458,-0.09807 -0.54549,1.022674 c -0.70112,1.314439 -1.8506,2.20643 -4.674307,3.627237 -2.96335,1.491065 -4.649269,1.831255 -9.701335,1.957567 -3.835909,0.09594 -4.241388,0.06503 -5.787205,-0.440453 z"
       class="cloud-shape"
       fill="currentColor" 
       stroke="currentColor"
       id="path1" />
  </g>
</svg>
