<?xml version="1.0" encoding="UTF-8" standalone="no"?>
<!-- Created with Inkscape (http://www.inkscape.org/) -->

<svg
   width="131.4769mm"
   height="53.589188mm"
   viewBox="0 0 131.4769 53.589188"
   version="1.1"
   id="svg1"
   xml:space="preserve"
   inkscape:version="1.4 (e7c3feb1, 2024-10-09)"
   sodipodi:docname="cloud-7.svg"
   xmlns:inkscape="http://www.inkscape.org/namespaces/inkscape"
   xmlns:sodipodi="http://sodipodi.sourceforge.net/DTD/sodipodi-0.dtd"
   xmlns="http://www.w3.org/2000/svg"
   xmlns:svg="http://www.w3.org/2000/svg"><sodipodi:namedview
     id="namedview1"
     pagecolor="#ffffff"
     bordercolor="#000000"
     borderopacity="0.25"
     inkscape:showpageshadow="2"
     inkscape:pageopacity="0.0"
     inkscape:pagecheckerboard="0"
     inkscape:deskcolor="#d1d1d1"
     inkscape:document-units="mm"
     inkscape:zoom="0.71356521"
     inkscape:cx="273.27565"
     inkscape:cy="119.12016"
     inkscape:window-width="1104"
     inkscape:window-height="705"
     inkscape:window-x="589"
     inkscape:window-y="117"
     inkscape:window-maximized="0"
     inkscape:current-layer="layer1" /><defs
     id="defs1" /><g
     inkscape:label="Layer 1"
     inkscape:groupmode="layer"
     id="layer1"
     transform="translate(-6.0999926,-6.7338386)"><path
       class="cloud-shape"
       fill="currentColor" 
       stroke="currentColor"
       d="m 85.533309,58.903883 c -1.261218,-0.332286 -4.435244,-2.238245 -5.3539,-3.214942 -0.313249,-0.333038 -0.752715,-1.032325 -0.976607,-1.553974 l -0.407064,-0.948464 -0.833687,0.614093 c -1.154276,0.850225 -5.218983,2.35093 -7.203486,2.659552 -1.186542,0.184527 -2.845332,0.163127 -5.930949,-0.07651 -4.0598,-0.315321 -4.370714,-0.377553 -5.948124,-1.190666 -0.915429,-0.471873 -2.41566,-1.409184 -3.333856,-2.082902 -1.31617,-0.965726 -1.753974,-1.167877 -2.068915,-0.955297 -1.431019,0.965926 -3.936633,2.140843 -5.283377,2.477441 -1.920481,0.479998 -5.026966,0.314207 -7.297448,-0.389448 -0.838847,-0.259977 -1.932493,-0.558807 -2.430322,-0.664079 -1.040239,-0.219973 -3.21158,-1.522496 -4.090639,-2.453851 l -0.599355,-0.635008 -1.421157,0.833115 c -0.781638,0.458217 -1.908439,0.912476 -2.504011,1.009459 -0.595573,0.09699 -1.490183,0.38155 -1.988012,0.632363 -1.31745,0.663746 -3.663997,1.087888 -5.092885,0.920536 -1.471621,-0.172357 -4.914756,-1.652385 -5.615022,-2.413619 -0.270955,-0.294548 -0.640251,-0.535541 -0.820647,-0.535541 -0.180406,0 -0.691548,-0.297812 -1.135881,-0.661795 -0.775656,-0.63539 -0.865864,-0.650453 -2.261197,-0.377648 -2.218374,0.433714 -3.5235481,0.36168 -4.3062316,-0.237673 -0.3747695,-0.286992 -0.6792317,-0.711857 -0.6765731,-0.944134 0.00293,-0.232278 0.5003018,-1.322753 1.1058636,-2.423268 1.0455081,-1.900086 1.1935901,-2.049433 2.9374471,-2.962584 1.010036,-0.528895 2.789081,-1.196155 3.953426,-1.482802 1.83947,-0.452849 2.376934,-0.48736 4.099699,-0.263249 2.065552,0.268704 2.368226,0.17331 2.37715,-0.749203 0.0078,-0.815223 1.26328,-3.142293 2.328024,-4.315371 0.598984,-0.659934 1.59902,-1.49082 2.222294,-1.846415 1.276681,-0.72838 4.009482,-1.359655 5.885968,-1.359655 h 1.251727 L 33.93629,31.217147 c -0.265658,-3.104795 0.622296,-5.95749 2.761469,-8.871674 1.452542,-1.978782 5.175654,-3.834537 9.297883,-4.63446 2.225979,-0.431952 5.814234,-0.01106 7.343387,0.861364 0.660661,0.376927 1.229999,0.64701 1.265187,0.600185 0.03519,-0.04683 0.490625,-0.934858 1.012088,-1.973403 1.934341,-3.85245 4.506295,-6.470016 7.805511,-7.9439461 2.832147,-1.2652674 7.890713,-1.3932853 10.991089,-0.278153 2.57684,0.926827 6.169142,3.4861981 7.127315,5.0779151 0.962004,1.598079 2.059707,4.280732 2.45467,5.998903 0.180211,0.78394 0.378455,1.425346 0.440541,1.425346 0.06207,0 0.429536,-0.219507 0.816553,-0.487793 1.567498,-1.086612 4.655304,-2.041947 7.106593,-2.198704 2.142916,-0.137036 2.569138,-0.08528 4.432136,0.538237 2.808206,0.939865 5.119698,2.23934 6.077518,3.416682 0.43911,0.539735 1.17341,1.820978 1.63179,2.847209 l 0.83341,1.865875 1.20187,-0.59464 c 1.8567,-0.918624 3.65168,-1.022749 6.19834,-0.359558 5.37466,1.399642 7.69198,3.923417 9.23935,10.062508 0.43022,1.706883 0.82478,3.144859 0.8768,3.1955 0.052,0.05064 0.71101,-0.08614 1.46442,-0.303957 1.7191,-0.497004 3.31972,-0.308121 5.36373,0.632955 1.87365,0.862646 4.44992,3.495475 5.12661,5.239182 0.25559,0.658608 0.73718,1.59198 1.0702,2.074167 0.66934,0.969132 0.77676,1.667134 0.28223,1.833972 -0.1778,0.05995 -1.02764,0.05567 -1.88854,-0.0095 -1.26844,-0.09608 -1.78337,-0.0117 -2.71544,0.444791 -0.6326,0.309839 -1.33062,0.717195 -1.55117,0.905234 -0.47913,0.408527 -3.43634,1.632983 -6.38714,2.644659 -2.19833,0.753688 -4.11176,0.931298 -5.00718,0.464764 -0.41298,-0.215168 -0.76523,-0.114616 -1.82738,0.52163 -2.10671,1.261957 -6.28731,2.51438 -8.39307,2.51438 -2.07507,0 -4.49639,-0.633572 -6.69039,-1.750625 -1.3978,-0.711686 -1.57732,-0.748682 -1.810292,-0.37309 -1.487976,2.398946 -3.325257,3.563235 -6.723967,4.260999 -2.167059,0.444905 -6.015312,0.464983 -7.629102,0.03977 z"
       id="path1"
       sodipodi:nodetypes="ssscsscssssssscsssssssssccssscssscsssssssssssssssscssssssssscssssssscsss" /></g></svg>
