<?xml version="1.0" encoding="UTF-8" standalone="no"?>
<!-- Created with Inkscape (http://www.inkscape.org/) -->

<svg
   class="logo-name"
   viewBox="0 0 173.4413 52.830948">
   <g transform="translate(-15.347407,-9.9641841)">
      <path
         fill="currentColor" 
         stroke="currentColor"
         d="m 103.07433,62.20185 c -1.51169,-0.34341 -3.27583,-1.217947 -3.726039,-1.847121 -1.136952,-1.588987 0.254576,-3.278833 2.278379,-2.766816 1.45371,0.367786 7.17825,0.420644 10.502,0.09702 4.91351,-0.478485 6.59237,-0.99573 9.20116,-2.834868 2.33405,-1.64542 3.23237,-2.766406 3.8971,-4.863101 0.47304,-1.492075 0.51106,-4.281558 0.081,-5.948836 -0.56215,-2.179665 -1.37809,-3.476114 -3.41321,-5.423293 -3.34602,-3.201444 -7.54936,-7.854913 -8.51736,-9.429452 -0.60569,-0.985199 -2.33292,-4.338199 -2.77407,-5.385193 -0.45134,-1.071129 -0.55789,-5.089299 -0.17078,-6.440118 0.97254,-3.393659 5.16129,-6.58333 8.65039,-6.587161 1.01007,-0.0011 1.69789,0.12663 3.01015,0.559071 2.9162,0.960978 4.00645,1.698661 4.79275,3.242838 0.41735,0.819631 0.44137,0.994557 0.34238,2.494197 -0.12094,1.833838 -0.28247,2.249319 -0.93752,2.412921 -0.94957,0.237179 -1.64538,-0.562638 -2.41844,-2.78008 -0.2525,-0.724252 -0.40338,-0.892512 -1.05916,-1.181183 -0.95388,-0.419903 -3.13584,-1.004765 -3.76882,-1.010215 -0.77017,-0.0067 -2.32994,0.780492 -3.25734,1.643773 -1.2413,1.155463 -1.45844,1.714168 -1.44484,3.71762 0.0133,2.002438 0.11473,2.372054 1.14825,4.201162 0.43977,0.778223 0.79959,1.448125 0.79959,1.488677 0,0.247692 1.70442,2.580427 2.40604,3.292976 0.46134,0.46852 1.67094,1.789935 2.68795,2.936465 1.01705,1.14653 2.57526,2.788146 3.46274,3.648041 2.01894,1.956224 2.98021,3.192456 3.77104,4.849621 0.89415,1.873683 1.2746,3.512734 1.39452,6.007641 0.12848,2.671799 -0.26055,4.693956 -1.31679,6.845356 -1.12922,2.300017 -2.80651,4.006405 -5.87816,5.98014 -2.68549,1.725576 -4.14872,2.173353 -9.75674,2.985829 -2.25353,0.326468 -8.69607,0.3872 -9.98624,0.09419 z M 45.504783,58.907814 C 43.594224,58.304942 41.695617,56.746497 39.808082,54.231766 38.21008,52.10278 37.2976,49.943759 36.601883,46.64558 36.267421,45.060013 35.820531,41.182822 35.818232,39.846734 35.817244,39.263051 35.725952,38.794307 35.591705,38.683433 35.468033,38.581274 34.464208,38.44402 33.360959,38.378392 l -2.005892,-0.119316 -0.771814,1.02206 c -1.068732,1.415231 -3.262848,3.544947 -4.544401,4.411013 -2.416162,1.632827 -4.448666,2.140584 -6.7169,1.678035 -1.501902,-0.306282 -2.056774,-0.616785 -2.649002,-1.482392 -1.025517,-1.498914 -0.538239,-3.04186 1.5816,-5.008121 2.358528,-2.18765 5.824178,-3.72792 9.235649,-4.104688 l 1.749666,-0.193235 0.859546,-1.308468 c 1.561373,-2.376814 3.192762,-6.266074 4.119336,-9.820552 0.562519,-2.157915 1.900085,-8.066822 2.043783,-9.028732 0.173911,-1.16415 0.825885,-1.828524 1.794394,-1.828524 0.55721,0 0.782987,0.102684 1.131185,0.514487 0.769863,0.910497 0.886153,2.331623 0.711301,8.692466 -0.08537,3.105185 -0.155199,7.443736 -0.155199,9.641247 v 3.995472 l 0.523685,0.05838 c 0.288031,0.03203 1.544881,0.299243 2.793004,0.593663 1.248124,0.294419 2.76699,0.541773 3.375272,0.549651 1.342647,0.01743 1.774335,0.396564 1.774335,1.558387 0,1.676295 -1.591181,2.394232 -4.102232,1.850931 -2.230323,-0.48254 -4.190471,-0.846165 -4.248757,-0.788168 -0.110483,0.109995 0.312823,3.512304 0.687698,5.527387 0.687656,3.696381 1.67472,5.744791 3.822904,7.933474 2.042292,2.080809 2.969555,2.373325 6.386967,2.01482 1.401034,-0.146996 1.41624,-0.14427 1.969902,0.352222 1.150625,1.031831 0.773696,2.534233 -0.81079,3.231721 -0.452983,0.199404 -1.216787,0.46677 -1.697334,0.594127 -1.091882,0.289389 -3.786279,0.284895 -4.714088,-0.0078 z M 22.909761,40.986801 c 0.867599,-0.431225 2.855448,-1.971468 2.719277,-2.106973 -0.125278,-0.124719 -2.158,0.874801 -3.296114,1.620672 -1.691645,1.108623 -1.31466,1.426444 0.576837,0.486301 z m 12.724643,-8.457421 -0.0076,-2.301736 -0.574769,1.389723 c -0.316123,0.764358 -0.751786,1.732571 -0.968142,2.151594 -0.463336,0.897378 -0.341644,1.055344 0.81619,1.059506 l 0.74189,0.0027 z M 174.36115,57.405978 c -0.66956,-0.524142 -2.29,-3.036987 -2.79523,-4.33466 -0.2418,-0.621035 -0.60129,-1.676354 -0.79886,-2.345166 -0.19757,-0.668812 -0.71223,-2.349514 -1.14366,-3.734905 -0.78534,-2.521727 -1.4533,-5.080043 -1.837,-7.035495 -0.41291,-2.104338 -1.68682,-6.166928 -1.9338,-6.166928 -0.0719,0 -0.18395,0.332229 -0.24903,0.738292 -0.38898,2.427095 -1.89827,8.762513 -2.65872,11.160126 -1.07552,3.391105 -3.10946,7.039944 -5.39901,9.685822 -0.84761,0.979501 -1.10401,1.172573 -1.55719,1.172573 -0.64356,0 -1.12032,-0.458954 -1.12032,-1.078416 0,-0.49399 0.66582,-2.02926 1.45341,-3.351349 0.83536,-1.402236 2.65073,-5.124674 3.04987,-6.253779 0.90172,-2.550842 1.55238,-5.460958 2.56338,-11.465269 0.41003,-2.435013 0.43879,-3.001907 0.43915,-8.652535 2.1e-4,-3.459888 -0.0801,-6.562748 -0.18768,-7.252839 -0.3114,-1.99737 0.33357,-3.116543 1.7961,-3.116543 1.05601,0 1.58264,0.630681 1.96131,2.348983 0.16807,0.76225 0.57312,2.271575 0.90035,3.354041 0.32719,1.082466 0.95013,3.34947 1.38436,5.037773 0.43419,1.688304 1.25177,4.476749 1.81682,6.196537 1.20028,3.653122 1.85129,6.091612 2.19112,8.207174 0.18617,1.159087 0.37728,1.015101 0.49519,-0.373062 0.22947,-2.701285 1.38532,-7.248949 2.7902,-10.978013 2.2189,-5.889807 4.51053,-9.899749 8.08125,-14.140863 2.2656,-2.690974 2.55669,-2.953177 3.27852,-2.953177 0.74019,0 1.50267,0.61882 1.50267,1.219537 0,0.49712 -0.199,0.83634 -1.56818,2.673522 -2.32191,3.115511 -4.23025,6.3063 -5.70494,9.538833 -1.18274,2.592628 -3.01305,8.019469 -3.61372,10.71466 -1.2618,5.661891 -1.26015,13.311799 0.003,18.240635 0.36932,1.440048 0.23105,2.257536 -0.48296,2.855415 -0.69014,0.577908 -1.97765,0.621064 -2.65727,0.08901 z m -32.90982,-1.569631 c -1.05583,-0.322472 -1.88387,-0.983165 -2.79567,-2.230726 -1.41953,-1.942225 -3.08856,-5.260258 -3.50191,-6.961799 -0.19727,-0.812124 -0.44696,-1.828371 -0.55485,-2.258308 -0.6153,-2.452219 -0.68977,-3.15131 -0.69352,-6.51103 -0.007,-5.046657 0.40033,-8.642782 1.23654,-10.95272 0.17398,-0.480628 0.52828,-1.887727 0.78733,-3.126902 0.87983,-4.208946 2.02926,-6.942501 3.44047,-8.182076 0.31543,-0.277061 0.71706,-0.724059 0.89254,-0.993328 0.7057,-1.082872 2.40557,-1.339552 4.83076,-0.729456 2.0508,0.515916 2.45283,0.70068 4.102,1.885205 1.75235,1.258619 2.09364,1.604644 2.91195,2.952435 0.79035,1.301741 2.34145,5.666463 2.85207,8.02567 0.16547,0.764358 0.48747,2.093285 0.71557,2.95318 0.36827,1.388141 0.41417,1.933523 0.4095,4.864055 -0.003,2.873629 -0.0511,3.424211 -0.35827,4.256042 -0.19413,0.5255 -0.69422,1.971683 -1.11123,3.21375 -0.41702,1.24208 -0.92873,2.688253 -1.13717,3.213743 -0.20839,0.52551 -0.484,1.237849 -0.61247,1.582998 -0.12848,0.345158 -0.4673,1.087805 -0.75295,1.650306 -0.28565,0.56252 -0.70226,1.491781 -0.92576,2.065049 -0.32973,0.845753 -0.72309,1.358513 -2.08605,2.719293 -1.6269,1.624268 -1.72591,1.691615 -3.14904,2.141932 -1.62313,0.51361 -3.59552,0.698876 -4.49984,0.422687 z m 2.16522,-4.157602 c 1.30936,-0.495407 3.24388,-2.84114 4.67444,-5.668103 1.68837,-3.336362 2.81506,-7.075289 3.34546,-11.101827 0.3618,-2.746621 0.33776,-3.501318 -0.18504,-5.810337 -0.92353,-4.078549 -1.60293,-5.358898 -4.10809,-7.741749 -2.01564,-1.917212 -3.16915,-2.715447 -3.82898,-2.64968 -0.53618,0.05351 -0.62158,0.186452 -2.52043,3.924351 -1.08097,2.127959 -2.09222,4.277689 -2.24718,4.777194 -0.41986,1.353399 -0.63612,4.268649 -0.63629,8.5767 -2.9e-4,7.08967 0.77058,11.223744 2.61929,14.047522 1.14058,1.742138 1.73572,2.081454 2.88682,1.645929 z m -52.376342,2.26116 c -0.05943,-0.09555 -0.344064,-0.173727 -0.632746,-0.173727 -0.744532,0 -1.134118,-0.256375 -1.357171,-0.89316 -0.158208,-0.451626 -0.137643,-0.667346 0.11251,-1.176247 0.37526,-0.763516 1.339548,-1.267023 3.210111,-1.676158 0.733,-0.160332 1.406181,-0.340762 1.495923,-0.400996 0.0989,-0.06634 0.106744,-0.725637 0.01996,-1.672924 -0.07866,-0.859892 -0.146958,-8.110384 -0.151453,-16.112173 -0.0045,-8.001809 -0.03903,-14.548732 -0.07643,-14.548732 -0.03756,0 -0.59824,0.122292 -1.246244,0.271907 -1.531111,0.353362 -2.321341,0.354889 -2.999713,0.0054 -1.173695,-0.603986 -1.431552,-2.405481 -0.485034,-3.388637 0.893308,-0.927887 7.215864,-2.528373 10.790749,-2.73156 1.66659,-0.09474 2.06761,-0.06626 2.54783,0.180875 0.79791,0.410606 1.25131,1.225799 1.2521,2.251171 5.8e-4,0.747264 -0.0763,0.922025 -0.6599,1.502946 l -0.66057,0.657355 -1.96161,0.126615 c -1.078878,0.06959 -1.995194,0.180614 -2.036245,0.246719 -0.118724,0.191005 -0.09821,3.121348 0.08768,12.515902 0.242443,12.262412 0.433288,19.255976 0.528041,19.35025 0.04439,0.04416 0.85322,-0.187494 1.797394,-0.51485 2.4475,-0.848607 3.81685,-0.716795 4.60789,0.443507 0.66246,0.971713 0.4331,1.906807 -0.71334,2.908526 -0.86487,0.755671 -4.786621,1.991937 -8.434889,2.658981 -1.986161,0.363145 -4.854547,0.459266 -5.034993,0.168725 z M 55.257357,51.77642 C 53.89121,51.472228 53.28209,51.154095 52.612285,50.394926 51.713794,49.376559 51.554784,47.178838 51.725018,38.131729 c 0.07104,-3.773984 0.08322,-7.969852 0.0271,-9.324143 -0.17936,-4.328241 0.718502,-13.620256 1.452592,-15.032964 0.562105,-1.081718 1.957376,-1.244553 2.739369,-0.319701 0.360843,0.426751 0.44042,0.803872 0.647946,3.070684 0.250083,2.731514 0.279959,15.027305 0.06075,25.037021 l -0.111252,5.081196 0.85312,-3e-5 c 1.112015,-3.9e-5 3.310521,-0.41956 4.955354,-0.945568 3.402919,-1.088245 3.899876,-1.149505 4.879708,-0.601474 2.231589,1.248137 1.485466,4.330429 -1.213883,5.014806 -0.432044,0.109594 -1.492518,0.425793 -2.356599,0.702784 -2.853217,0.914635 -6.658232,1.350325 -8.401961,0.96208 z m 21.097916,-1.050366 c -2.212083,-0.613482 -2.687691,-1.180741 -3.099998,-3.697426 -0.273415,-1.668821 -0.384878,-3.421481 -0.516132,-8.115181 -0.04805,-1.719787 -0.186177,-5.120285 -0.30685,-7.55665 -0.271992,-5.491284 -0.260428,-13.208696 0.02341,-15.634457 0.269806,-2.305666 0.592559,-3.227518 1.248129,-3.564882 0.629513,-0.32395 0.929234,-0.3229 1.56738,0.0056 0.712261,0.366542 0.833356,0.671136 1.116357,2.807752 0.476837,3.600197 0.614537,5.199546 0.700391,8.134575 0.04751,1.624239 0.203342,5.298347 0.346297,8.164665 0.142922,2.866305 0.297983,7.126702 0.344515,9.46753 0.04654,2.340825 0.137408,4.39284 0.201945,4.56005 0.15054,0.389985 0.977111,0.398574 2.611155,0.02716 1.321804,-0.300459 1.717837,-0.424162 4.362292,-1.362617 2.002691,-0.710727 3.013136,-0.781308 3.846611,-0.268695 1.012649,0.622823 1.44063,2.202674 0.88395,3.263074 -0.59234,1.128303 -1.780658,1.723183 -5.950715,2.978922 -3.061647,0.921962 -5.834151,1.21906 -7.378743,0.790678 z"
      />
   </g>
</svg>
