<?xml version="1.0" encoding="UTF-8" standalone="no"?>
<!-- Created with Inkscape (http://www.inkscape.org/) -->

<svg
   width="143.51198mm"
   height="75.467468mm"
   viewBox="0 0 143.51198 75.467468"
   version="1.1"
   id="svg1"
   xml:space="preserve"
   inkscape:version="1.4 (e7c3feb1, 2024-10-09)"
   sodipodi:docname="logo.svg"
   xmlns:inkscape="http://www.inkscape.org/namespaces/inkscape"
   xmlns:sodipodi="http://sodipodi.sourceforge.net/DTD/sodipodi-0.dtd"
   xmlns="http://www.w3.org/2000/svg"
   xmlns:svg="http://www.w3.org/2000/svg"><sodipodi:namedview
      id="namedview1"
      pagecolor="#ffffff"
      bordercolor="#000000"
      borderopacity="0.25"
      inkscape:showpageshadow="2"
      inkscape:pageopacity="0.0"
      inkscape:pagecheckerboard="0"
      inkscape:deskcolor="#d1d1d1"
      inkscape:document-units="mm"
      inkscape:zoom="1.1487964"
      inkscape:cx="224.58288"
      inkscape:cy="178.0124"
      inkscape:window-width="1496"
      inkscape:window-height="854"
      inkscape:window-x="16"
      inkscape:window-y="38"
      inkscape:window-maximized="0"
      inkscape:current-layer="layer1" /><defs
      id="defs1" /><g
      inkscape:label="Layer 1"
      inkscape:groupmode="layer"
      id="layer1"
      transform="translate(-8.9919825,7.534755)"><path
      fill="currentColor" 
      stroke="currentColor"
      d="M 70.138025,67.2058 C 68.814917,66.912397 67.697666,66.588346 67.304313,66.383899 66.947145,66.198266 66.571398,66.045816 66.469318,66.045127 65.949795,66.041827 63.099661,64.525332 61.887965,63.607832 61.229944,63.109577 60.252237,62.456131 59.638438,62.104378 59.286104,61.902456 58.70165,61.446391 58.33965,61.090893 57.97766,60.735392 57.449083,60.281494 57.165051,60.082225 L 56.648618,59.71992 55.98433,60.418721 c -0.969781,1.020167 -2.242408,1.967833 -3.877774,2.887588 -1.704585,0.95868 -3.193916,1.528258 -4.476051,1.711808 -0.511329,0.0732 -1.460495,0.255273 -2.109269,0.404598 -1.415512,0.32581 -3.261673,0.272855 -4.673222,-0.134051 -0.482499,-0.139088 -1.196063,-0.290671 -1.585701,-0.336859 -1.095992,-0.129914 -2.648184,-0.57464 -3.365039,-0.964126 C 35.540109,63.793617 35.11505,63.591415 34.952702,63.53834 33.748521,63.144667 32.021728,62.20397 30.923197,61.343206 30.249624,60.815417 29.268354,60.157814 28.742596,59.881865 27.982373,59.482848 27.640337,59.203596 27.071864,58.517807 26.67872,58.043528 26.261728,57.442096 26.145216,57.181292 l -0.21184,-0.474192 -1.128252,0.305971 c -1.002017,0.271734 -1.293387,0.297068 -2.604149,0.226426 -1.754239,-0.09454 -2.860131,-0.317189 -4.345405,-0.874838 -0.88142,-0.330932 -1.292241,-0.57904 -2.079364,-1.255795 -1.527894,-1.313664 -2.415744,-2.185947 -2.664162,-2.617449 -0.125337,-0.217713 -0.35112,-0.540463 -0.501739,-0.717229 -0.787079,-0.923697 -1.999563,-2.804089 -2.222816,-3.447283 -0.56344,-1.623263 -0.824074,-3.10633 -0.9005535,-5.124326 -0.0698,-1.841693 -0.055034,-2.043555 0.2539855,-3.473177 0.48089,-2.224738 0.988031,-3.244739 2.480441,-4.988843 0.302509,-0.353527 1.019635,-1.250204 1.593613,-1.992613 0.573979,-0.742409 1.20435,-1.478843 1.400827,-1.636518 0.531749,-0.42674 4.908404,-2.832629 5.432445,-2.986269 0.249383,-0.0731 1.128368,-0.1841 1.953298,-0.246635 0.824931,-0.06253 1.52731,-0.143573 1.560844,-0.180086 0.03353,-0.03651 -0.0833,-0.570228 -0.259648,-1.186037 -0.31371,-1.09552 -0.319011,-1.16854 -0.245951,-3.387755 0.08214,-2.494912 0.202561,-3.253077 0.850328,-5.353439 0.526165,-1.706071 0.556431,-1.773998 1.120696,-2.515211 0.245726,-0.322782 0.728014,-1.074833 1.07175,-1.671224 0.881605,-1.529605 1.000788,-1.668673 2.677448,-3.124176 2.449694,-2.1265763 3.078154,-2.600097 4.690153,-3.5338483 1.887975,-1.0936098 1.777935,-1.0548732 5.195148,-1.8287772 0.324698,-0.073531 1.930053,-0.1344167 3.567451,-0.1352934 3.572689,-0.00186 4.899129,0.2068896 7.885494,1.2412952 2.254018,0.7807435 3.084726,1.2937034 4.390614,2.7111997 0.84016,0.9119681 0.981641,0.9584147 0.981641,0.3222836 0,-0.1214824 0.443111,-1.2014418 0.984695,-2.3999041 0.800344,-1.7710628 1.181663,-2.4472859 2.036738,-3.6118701 0.578622,-0.7880656 1.303518,-1.8088381 1.610898,-2.26838492 0.941001,-1.40685527 3.231715,-3.38191648 4.577244,-3.94652958 0.227295,-0.095379 0.678284,-0.3161877 1.0022,-0.4906965 0.726461,-0.3913741 4.309537,-1.7598503 5.432704,-2.0749039 2.542679,-0.7132331 3.696886,-0.8500508 6.966221,-0.8257616 2.030073,0.015081 2.349998,0.048748 3.365038,0.3540797 0.61692,0.1855777 1.573307,0.4544761 2.125285,0.5975529 0.551989,0.143078 1.216139,0.3197431 1.4759,0.3925878 0.694977,0.1949004 2.687594,1.1149958 3.83732,1.7718927 0.551989,0.3153771 1.422466,0.8097457 1.934399,1.0985978 0.557894,0.3147813 1.323347,0.9114545 1.910642,1.48934997 0.538928,0.53029243 1.256863,1.22228995 1.595422,1.53777013 0.477856,0.4452857 0.730962,0.8335211 1.131425,1.7355022 0.283719,0.6390434 0.577528,1.5379243 0.652911,1.9975122 0.07535,0.4595853 0.150693,0.8557794 0.167356,0.8804278 0.05167,0.076454 1.360644,-0.8932663 2.286361,-1.6937835 1.654858,-1.4310536 2.898258,-1.8017076 6.084038,-1.813637 2.04134,-0.00759 2.31779,0.018417 3.06987,0.2894987 0.45457,0.1638439 1.17185,0.5169566 1.59396,0.7846943 0.42211,0.2677365 1.15505,0.7062498 1.62878,0.9744751 0.88179,0.4992757 1.6695,1.3420364 2.46308,2.6352138 0.19527,0.3181762 0.51759,0.8388262 0.71628,1.1570023 0.49118,0.7865 0.68876,1.3417865 0.85168,2.3934792 0.0761,0.490263 0.17757,0.960962 0.22586,1.045991 0.0639,0.11248 0.47224,-0.01445 1.49919,-0.466024 4.29374,-1.8879904 5.40601,-2.1319415 9.73551,-2.1353089 3.12172,-0.00248 3.30813,0.011565 4.83283,0.3628954 1.34681,0.3103319 1.79173,0.4799075 2.95133,1.1248615 0.75099,0.417694 1.43323,0.759442 1.51608,0.759442 0.0829,0 0.4849,0.165005 0.89339,0.366678 1.52099,0.750883 5.3468,4.820218 6.84659,7.282386 0.43068,0.707057 0.99373,1.603733 1.25117,1.992615 0.65924,0.995783 1.60382,3.116233 1.92341,4.317712 0.2303,0.865784 0.26973,1.304628 0.26473,2.945684 -0.006,1.771662 -0.0322,2.00667 -0.32885,2.892502 -0.17764,0.530292 -0.33441,1.018508 -0.34835,1.08492 -0.014,0.06642 0.22684,0.272334 0.53507,0.4576 0.72029,0.432935 1.07575,0.806093 2.27396,2.387164 1.60558,2.118612 1.72,2.365671 2.06786,4.465361 0.35122,2.119977 -0.40597,5.282115 -1.83765,7.674418 -0.27506,0.459586 -0.75831,1.321804 -1.07391,1.916043 -0.47144,0.887663 -0.79136,1.289059 -1.79304,2.249726 -0.67058,0.643109 -1.30817,1.222499 -1.41686,1.287536 -0.10865,0.06504 -0.51644,0.434385 -0.90608,0.820783 -0.51282,0.508561 -1.14091,0.929937 -2.27479,1.526101 -0.86149,0.452957 -1.87101,1.015331 -2.24336,1.249717 -0.37233,0.234387 -1.07549,0.583262 -1.56253,0.775279 -0.48704,0.192017 -1.54967,0.629455 -2.36143,0.972083 -2.48527,1.049012 -5.10757,1.853502 -6.67105,2.046603 -0.58445,0.07218 -1.80649,0.243574 -2.71564,0.380866 -3.60271,0.544055 -5.67014,0.663313 -7.01814,0.404841 -0.36107,-0.06923 -1.40035,-0.178901 -2.3095,-0.243704 -1.67511,-0.119394 -3.20288,-0.493482 -4.21879,-1.032999 l -0.44049,-0.233931 -0.37116,0.72184 c -0.95417,1.855706 -1.79634,3.037449 -2.89274,4.059148 -0.60399,0.56282 -1.4502,1.235496 -1.88046,1.494839 -0.83163,0.501258 -2.44789,0.972496 -4.6011,1.341513 -1.20267,0.206111 -4.250716,0.279018 -5.093448,0.121831 -1.178694,-0.219856 -2.749998,-0.584955 -3.230586,-0.75064 C 94.522751,65.767238 93.8586,65.538053 93.339087,65.358681 91.96775,64.885198 90.016335,63.989441 89.50133,63.597032 89.338744,63.473149 88.754289,63.11173 88.202542,62.793877 87.650794,62.476024 87.025997,62.108251 86.814115,61.976607 L 86.42887,61.737253 85.515327,62.774159 C 82.85245,65.796637 78.211129,67.738801 73.739208,67.70188 72.59561,67.69248 71.90107,67.596763 70.138025,67.2058 Z m 6.266504,-1.754949 c 1.259268,-0.234607 3.185224,-0.895174 4.41634,-1.51472 1.206196,-0.60701 2.352608,-1.512757 3.42671,-2.707343 1.684968,-1.873982 2.378724,-2.237997 2.889831,-1.516286 0.236192,0.33352 1.838,1.312743 4.353567,2.661427 1.182248,0.633847 3.335516,1.45044 4.681831,1.775513 1.86731,0.450872 2.18293,0.501364 3.496035,0.559246 2.241967,0.09882 6.167527,-0.667169 7.394757,-1.442946 1.00968,-0.638256 2.30144,-2.050275 3.04164,-3.32481 1.94164,-3.343227 1.84362,-3.206945 2.39745,-3.333526 0.46762,-0.106871 0.55192,-0.08269 1.05313,0.301955 1.18273,0.907689 2.52779,1.17132 7.70718,1.510622 1.22131,0.08001 3.37679,-0.105652 5.62048,-0.48412 0.78592,-0.132567 1.877,-0.296466 2.42467,-0.364222 1.5041,-0.186083 4.10442,-0.989663 6.47767,-2.001803 0.87666,-0.373888 1.78909,-0.747526 2.02762,-0.830306 0.95643,-0.331958 5.11248,-2.735091 5.75459,-3.327446 0.36293,-0.334831 0.92434,-0.838673 1.24757,-1.119648 1.23696,-1.075282 2.07178,-2.033156 2.536,-2.909867 0.26263,-0.495965 0.47751,-0.932309 0.47751,-0.969654 0,-0.03734 0.17912,-0.335974 0.39806,-0.663624 1.05508,-1.579044 1.83522,-4.358341 1.6816,-5.990874 -0.13282,-1.411447 -0.37637,-2.046307 -1.22859,-3.202477 -1.34055,-1.818748 -1.74105,-2.223339 -2.94493,-2.97515 -0.63421,-0.396061 -1.21954,-0.814383 -1.3007,-0.929606 -0.28576,-0.405631 -0.17835,-0.988456 0.26273,-1.425469 0.22567,-0.223595 0.48487,-0.565528 0.576,-0.75985 0.45004,-0.959715 0.56943,-3.31337 0.24245,-4.780273 -0.27223,-1.221373 -1.32198,-3.521706 -2.11167,-4.627371 -0.37529,-0.52543 -0.87082,-1.27748 -1.10123,-1.671226 -0.8115,-1.386957 -3.34223,-4.297464 -4.93509,-5.675714 -0.21953,-0.189948 -0.75826,-0.50263 -1.19717,-0.694851 -0.4389,-0.192221 -1.38248,-0.655969 -2.0968,-1.030552 -1.05641,-0.553958 -1.58867,-0.743435 -2.8521,-1.015288 -1.36983,-0.294751 -1.84222,-0.334227 -3.99927,-0.334227 -2.36928,0 -4.35947,0.198087 -5.36903,0.534393 -3.16478,1.054237 -6.098,2.352889 -6.49716,2.876553 -0.18748,0.245965 -0.81933,0.241605 -1.14652,-0.008 -0.31345,-0.239054 -0.45786,-0.971806 -0.3011,-1.527941 0.16872,-0.598479 -0.23188,-2.6763403 -0.64979,-3.3705465 -1.12607,-1.8705444 -1.46901,-2.3657089 -1.97293,-2.8486632 -0.31046,-0.2975469 -0.60957,-0.5409955 -0.66468,-0.5409955 -0.055,0 -0.61964,-0.3159006 -1.25451,-0.7020032 -1.77089,-1.0769723 -3.08571,-1.3343016 -5.51922,-1.0801795 -1.69263,0.1767521 -2.62302,0.5103844 -3.52698,1.2647473 C 99.905783,5.5798135 99.254517,6.0792657 98.873243,6.3436272 98.491969,6.6080021 97.805555,7.24812 97.347882,7.7661299 96.425516,8.8101111 96.1167,8.9247055 95.589281,8.418737 95.319901,8.1603234 95.261802,7.9308496 95.04405,6.2654415 94.722506,3.8061989 94.315026,2.8261065 93.246134,1.9410316 92.850123,1.6131134 92.257403,1.0597208 91.928989,0.71127036 90.76171,-0.52721936 86.420501,-2.7991359 84.247579,-3.3086983 c -0.519512,-0.1218308 -1.502458,-0.3950501 -2.184328,-0.6071576 -1.046986,-0.3256897 -1.516992,-0.39626 -3.022803,-0.4538682 -3.20582,-0.1226514 -5.4558,0.2556822 -9.068168,1.5247895 -4.278487,1.5031321 -6.577458,3.01722262 -8.178369,5.3862482 -0.264279,0.3910756 -0.904796,1.2668227 -1.423364,1.9461087 -1.088573,1.4259227 -2.462724,4.1402847 -2.863142,5.6555647 -0.366156,1.385629 -0.572002,1.838266 -0.945101,2.078232 -0.75316,0.484409 -1.187885,0.243066 -2.301701,-1.277821 C 52.960639,9.1683185 51.155982,8.2275398 47.350212,7.3409663 46.049304,7.0379117 45.559979,6.992195 43.222952,6.9553685 c -2.559748,-0.040341 -2.711991,-0.028403 -4.405885,0.3455828 -0.964988,0.2130489 -1.98931,0.4741523 -2.276274,0.5802297 -0.70934,0.2622115 -3.103338,1.7326656 -3.911617,2.402616 -0.361887,0.299953 -0.79933,0.661071 -0.972096,0.802483 -1.819365,1.48918 -2.621235,2.315861 -3.155088,3.252709 -0.31016,0.544296 -0.828073,1.357466 -1.150918,1.807043 -0.446371,0.621598 -0.696942,1.160537 -1.04596,2.249725 -0.606815,1.893679 -0.797779,3.135375 -0.797973,5.188592 -1.42e-4,1.494794 0.03715,1.819818 0.309773,2.699669 0.375863,1.213054 0.429896,2.241854 0.134649,2.563679 -0.297519,0.324304 -1.10689,0.537885 -3.042159,0.802787 -1.958623,0.268099 -2.18425,0.357342 -4.767042,1.885534 -1.63697,0.968565 -1.848227,1.13555 -2.532867,2.002053 -0.410814,0.519943 -1.263526,1.591681 -1.894913,2.381635 -1.395129,1.745504 -1.687205,2.309332 -2.090945,4.036414 -0.290417,1.242311 -0.308604,1.477621 -0.247705,3.204813 0.06653,1.88678 0.404258,3.693184 0.876426,4.687713 0.346985,0.730857 2.63477,3.817816 3.291555,4.44137 2.190573,2.079731 3.695707,2.746746 6.53899,2.89782 1.22169,0.06491 1.470281,0.03838 2.479502,-0.264575 1.605503,-0.48196 1.97256,-0.523426 2.246243,-0.253756 0.124979,0.12315 0.262433,0.346436 0.305458,0.496201 0.263679,0.917846 1.555498,2.39937 2.480509,2.844778 0.632561,0.304587 1.015084,0.56934 2.524371,1.747173 0.913351,0.712768 1.711784,1.162415 2.866996,1.614584 0.468741,0.183474 1.114649,0.470854 1.435349,0.638622 0.823373,0.430727 2.04765,0.781566 3.495679,1.001754 0.68478,0.104121 1.402065,0.255485 1.593965,0.336349 0.71828,0.302679 2.507674,0.305259 4.013511,0.0059 0.776867,-0.154494 1.716414,-0.338351 2.087894,-0.408571 1.016049,-0.192063 2.016418,-0.582444 3.396948,-1.325615 1.990812,-1.071701 3.256004,-2.094266 4.368441,-3.530698 0.565209,-0.72982 0.896715,-0.893322 1.318618,-0.650357 0.633471,0.364801 2.540754,1.799964 2.800469,2.107259 0.154257,0.182507 0.632444,0.543644 1.062651,0.802531 0.430198,0.258885 1.26038,0.798295 1.844834,1.198689 0.584453,0.400393 1.3283,0.887649 1.653001,1.082792 0.324692,0.19514 0.910294,0.548773 1.301334,0.78585 0.39103,0.237074 1.028622,0.51297 1.416856,0.613106 0.388235,0.100143 1.002265,0.331098 1.364515,0.513248 0.362249,0.182157 1.265499,0.449988 2.007217,0.595179 0.741726,0.14519 1.534544,0.315671 1.761841,0.378842 0.702012,0.195104 3.298088,0.156883 4.495424,-0.06616 z m 5.102949,-10.005115 c -1.022475,-0.254122 -2.21572,-0.901317 -2.520222,-1.366925 -0.769027,-1.175906 0.172187,-2.426445 1.541061,-2.047531 0.983262,0.272171 4.855251,0.311287 7.103388,0.07176 3.323428,-0.354093 4.458973,-0.73687 6.223526,-2.097889 1.578712,-1.217668 2.186318,-2.047235 2.635929,-3.598865 0.319963,-1.104178 0.345669,-3.168487 0.0548,-4.40233 -0.380217,-1.613016 -0.932103,-2.572433 -2.308636,-4.013417 -2.26319,-2.369172 -5.106272,-5.81289 -5.761007,-6.978096 -0.409685,-0.729084 -1.577954,-3.210417 -1.876347,-3.985226 -0.305279,-0.792672 -0.377347,-3.766248 -0.115512,-4.765896 0.657819,-2.511421 3.491014,-4.871882 5.850991,-4.874717 0.683193,-8.26e-4 1.14843,0.09371 2.036025,0.413731 1.972464,0.711155 2.709895,1.257065 3.241739,2.399806 0.282294,0.606554 0.298541,0.736005 0.231583,1.845791 -0.08183,1.357094 -0.191063,1.664568 -0.63412,1.785642 -0.642285,0.17552 -1.11291,-0.416372 -1.635802,-2.057358 -0.170788,-0.535966 -0.272842,-0.660485 -0.716398,-0.874111 -0.645192,-0.310742 -2.121036,-0.743559 -2.549169,-0.747592 -0.52093,-0.005 -1.575937,0.577589 -2.203224,1.216451 -0.839595,0.855075 -0.986463,1.268532 -0.977261,2.751154 0.0092,1.481869 0.07758,1.755404 0.776664,3.109003 0.297447,0.575908 0.540824,1.071655 0.540824,1.101665 0,0.183308 1.152847,1.9096 1.627407,2.43691 0.312045,0.346726 1.130192,1.324615 1.818097,2.173083 0.687905,0.848466 1.741863,2.063319 2.342138,2.699669 1.365579,1.447676 2.015769,2.362519 2.550669,3.588884 0.604791,1.38659 0.862122,2.599534 0.943232,4.445847 0.0869,1.977221 -0.17623,3.473679 -0.89066,5.065794 -0.763779,1.702087 -1.898266,2.964871 -3.975894,4.425493 -1.816413,1.276979 -2.806125,1.608358 -6.599308,2.209609 -1.524251,0.241607 -5.881891,0.286547 -6.754534,0.06966 z m -38.93916,-2.43769 c -1.292273,-0.44615 -2.576462,-1.599446 -3.853162,-3.460428 -1.080864,-1.575519 -1.698052,-3.173267 -2.168624,-5.614024 -0.226225,-1.173378 -0.528495,-4.042624 -0.53005,-5.031375 -6.68e-4,-0.431936 -0.06242,-0.778829 -0.153219,-0.86088 -0.08365,-0.07558 -0.762624,-0.177167 -1.508841,-0.225741 l -1.356755,-0.08832 -0.522048,0.756363 c -0.722871,1.047315 -2.206941,2.623381 -3.073763,3.264295 -1.634252,1.208344 -3.009006,1.584108 -4.543208,1.241802 -1.015863,-0.226655 -1.39117,-0.456442 -1.79174,-1.097019 -0.693646,-1.109248 -0.364063,-2.251082 1.069766,-3.706175 1.595273,-1.618933 3.939385,-2.758785 6.246853,-3.037606 l 1.183449,-0.143001 0.581384,-0.968304 c 1.056089,-1.758921 2.159535,-4.6371 2.786253,-7.267531 0.380481,-1.596933 1.28519,-5.969718 1.382385,-6.681563 0.117631,-0.861509 0.558616,-1.353168 1.213701,-1.353168 0.376889,0 0.529601,0.07599 0.765116,0.380738 0.520724,0.673797 0.599381,1.725477 0.481114,6.432713 -0.05774,2.297934 -0.104975,5.508612 -0.104975,7.134842 v 2.95678 l 0.354213,0.04319 c 0.19482,0.02375 1.044934,0.221448 1.889145,0.439329 0.844212,0.21788 1.87155,0.400922 2.282983,0.40676 0.908146,0.01288 1.200133,0.293466 1.200133,1.153254 0,1.240508 -1.07625,1.77181 -2.774687,1.369755 -1.508557,-0.357105 -2.834371,-0.626194 -2.873794,-0.583273 -0.07473,0.08137 0.211588,2.599219 0.465148,4.090447 0.46512,2.735444 1.132755,4.251332 2.585754,5.871037 1.381375,1.539863 2.008562,1.756332 4.320047,1.491022 0.947638,-0.108772 0.957923,-0.106758 1.332412,0.260665 0.778265,0.763592 0.523316,1.875408 -0.548406,2.391578 -0.306391,0.147566 -0.823016,0.345421 -1.148051,0.439673 -0.738533,0.214162 -2.560981,0.210826 -3.188537,-0.0059 z M 27.285392,39.74591 c 0.586827,-0.319121 1.931377,-1.458948 1.839277,-1.559227 -0.08474,-0.09227 -1.459644,0.647373 -2.229444,1.199342 -1.1442,0.820424 -0.889213,1.05562 0.390167,0.359885 z m 8.606752,-6.258772 -0.0052,-1.703362 -0.388765,1.028446 c -0.213821,0.565646 -0.508497,1.282156 -0.654834,1.592246 -0.313398,0.664091 -0.231085,0.780993 0.552056,0.784066 l 0.501803,0.002 z m 93.832656,18.4095 c -0.45288,-0.387878 -1.54892,-2.247469 -1.89065,-3.207787 -0.16355,-0.459587 -0.4067,-1.240562 -0.54034,-1.735503 -0.13363,-0.494939 -0.48174,-1.738717 -0.77355,-2.763947 -0.53119,-1.866165 -0.98299,-3.759398 -1.24252,-5.206506 -0.27929,-1.557271 -1.14094,-4.563727 -1.30799,-4.563727 -0.0486,0 -0.12443,0.245863 -0.16845,0.546363 -0.26309,1.796127 -1.28396,6.484545 -1.79831,8.25886 -0.72747,2.509525 -2.10319,5.209784 -3.65181,7.167824 -0.57331,0.724869 -0.74674,0.867749 -1.05326,0.867749 -0.43529,0 -0.75777,-0.33964 -0.75777,-0.79806 0,-0.36557 0.45035,-1.501725 0.98307,-2.480111 0.56502,-1.037704 1.79291,-3.792434 2.06288,-4.628004 0.60991,-1.887706 1.05001,-4.04129 1.73384,-8.484676 0.27733,-1.801996 0.29679,-2.221513 0.29703,-6.40316 1.4e-4,-2.560437 -0.0542,-4.856653 -0.12694,-5.367341 -0.21063,-1.478128 0.22562,-2.306348 1.21485,-2.306348 0.71427,0 1.07047,0.466725 1.3266,1.738326 0.11368,0.564092 0.38765,1.681037 0.60898,2.482101 0.22131,0.801063 0.64266,2.478714 0.93636,3.728116 0.29368,1.249399 0.84668,3.312938 1.22887,4.585638 0.81185,2.703436 1.25219,4.507993 1.48204,6.073583 0.12592,0.857757 0.25519,0.751214 0.33494,-0.276083 0.15521,-1.999034 0.93701,-5.364453 1.88725,-8.124088 1.50084,-4.358644 3.05086,-7.32614 5.46604,-10.464702 1.53242,-1.991409 1.72931,-2.185448 2.21755,-2.185448 0.50065,0 1.01638,0.457947 1.01638,0.902498 0,0.367885 -0.1346,0.618919 -1.0607,1.978497 -1.5705,2.305572 -2.86127,4.66687 -3.85873,7.059042 -0.79999,1.918634 -2.03798,5.934678 -2.44426,7.929204 -0.85348,4.189994 -0.85236,9.851171 0.002,13.498668 0.2498,1.065681 0.15628,1.670649 -0.32667,2.113099 -0.46681,0.427671 -1.33766,0.459613 -1.79735,0.06593 z m -22.2597,-1.161582 c -0.71415,-0.238633 -1.27422,-0.72757 -1.89095,-1.650807 -0.96015,-1.437311 -2.08906,-3.892756 -2.36864,-5.151959 -0.13343,-0.600998 -0.30231,-1.353049 -0.37529,-1.671225 -0.41618,-1.814715 -0.46655,-2.332066 -0.46909,-4.818379 -0.005,-3.734689 0.27078,-6.395935 0.83638,-8.105371 0.11768,-0.355674 0.35732,-1.396976 0.53254,-2.314001 0.5951,-3.114766 1.37256,-5.137682 2.32708,-6.055011 0.21335,-0.205034 0.48501,-0.535827 0.6037,-0.735096 0.47733,-0.80136 1.62709,-0.991312 3.26745,-0.539821 1.38713,0.381795 1.65906,0.518526 2.77453,1.395114 1.18526,0.931423 1.41611,1.187486 1.9696,2.184903 0.53458,0.963321 1.58372,4.193363 1.9291,5.939259 0.11192,0.565645 0.32971,1.549097 0.484,2.185448 0.24909,1.027271 0.28014,1.430873 0.27698,3.59956 -0.002,2.126578 -0.0346,2.534026 -0.24233,3.149614 -0.13131,0.388881 -0.46956,1.459106 -0.75162,2.37828 -0.28206,0.919173 -0.62818,1.989399 -0.76916,2.378279 -0.14095,0.388882 -0.32737,0.916044 -0.41427,1.17147 -0.0869,0.255429 -0.31607,0.805004 -0.50928,1.221281 -0.19321,0.416275 -0.475,1.103965 -0.62617,1.528198 -0.22303,0.62589 -0.48909,1.00535 -1.41098,2.012368 -1.1004,1.202013 -1.16737,1.251851 -2.12996,1.585103 -1.09786,0.380085 -2.43195,0.517187 -3.04362,0.312793 z m 1.46452,-3.076759 c 0.88563,-0.366616 2.19411,-2.102536 3.16172,-4.194573 1.14199,-2.469028 1.90406,-5.235952 2.26282,-8.21573 0.24472,-2.032582 0.22846,-2.591086 -0.12516,-4.29983 -0.62466,-3.018264 -1.0842,-3.965766 -2.77865,-5.729157 -1.36335,-1.418799 -2.14356,-2.00952 -2.58986,-1.960848 -0.36267,0.03957 -0.42043,0.137983 -1.70478,2.904146 -0.73116,1.574763 -1.41515,3.165638 -1.51996,3.53528 -0.28399,1.001564 -0.43026,3.158945 -0.43038,6.347047 -1.9e-4,5.246591 0.52121,8.305937 1.77165,10.395624 0.77147,1.289242 1.17401,1.540347 1.9526,1.218041 z m -35.426557,1.673332 c -0.04018,-0.07071 -0.232721,-0.128555 -0.427978,-0.128555 -0.50359,0 -0.767102,-0.189738 -0.917977,-0.66097 -0.107007,-0.334226 -0.09305,-0.493863 0.0761,-0.870466 0.253829,-0.565029 0.906055,-0.937634 2.171276,-1.240412 0.495786,-0.118647 0.951119,-0.252182 1.01182,-0.296745 0.06693,-0.0491 0.0722,-0.537006 0.01351,-1.238022 -0.05324,-0.636352 -0.09936,-6.001947 -0.10244,-11.923542 -0.0028,-5.921596 -0.02638,-10.766539 -0.05167,-10.766539 -0.02536,0 -0.404639,0.09054 -0.842937,0.201223 -1.035621,0.261501 -1.570121,0.262631 -2.028963,0.0043 -0.793872,-0.446975 -0.968281,-1.780137 -0.328071,-2.507705 0.604219,-0.686667 4.880698,-1.871079 7.2987,-2.021444 1.127259,-0.07011 1.398499,-0.04904 1.72332,0.133854 0.539686,0.303862 0.846364,0.907131 0.8469,1.66594 3.89e-4,0.553 -0.05157,0.682329 -0.446353,1.112229 l -0.446795,0.486461 -1.326802,0.09365 c -0.729737,0.0515 -1.349517,0.133659 -1.377289,0.182579 -0.08026,0.141354 -0.06637,2.309908 0.05925,9.262184 0.163993,9.074591 0.293069,14.250049 0.357157,14.319818 0.02999,0.03272 0.577112,-0.138745 1.21573,-0.381004 1.655447,-0.62799 2.581663,-0.530453 3.116711,0.328211 0.448073,0.719091 0.292939,1.411096 -0.482503,2.152407 -0.584981,0.55922 -3.237584,1.474102 -5.705223,1.967731 -1.343417,0.268737 -3.283545,0.339866 -3.405594,0.124858 z M 49.16481,47.730578 c -0.924041,-0.225108 -1.33604,-0.460537 -1.789086,-1.02235 -0.607726,-0.753618 -0.715278,-2.380007 -0.600134,-9.075167 0.04805,-2.792873 0.05629,-5.897949 0.01833,-6.900171 -0.121316,-3.203038 0.485984,-10.079439 0.982512,-11.124889 0.380199,-0.800507 1.323939,-0.92101 1.852867,-0.236589 0.244069,0.31581 0.297893,0.594891 0.438261,2.272412 0.169152,2.02141 0.18936,11.120698 0.04109,18.528211 l -0.07525,3.760255 0.577038,-2.3e-5 c 0.75215,-2.8e-5 2.239186,-0.310483 3.351726,-0.699749 2.301682,-0.805338 2.637817,-0.850671 3.30056,-0.445113 1.509413,0.923662 1.004747,3.204668 -0.821052,3.711125 -0.292228,0.08106 -1.009516,0.315096 -1.593968,0.520082 -1.929872,0.676859 -4.503526,0.999291 -5.682958,0.711966 z M 63.435119,46.953282 C 61.9389,46.499277 61.617206,46.079484 61.338328,44.217064 61.153394,42.982082 61.078002,41.685053 60.989224,38.21156 c -0.0325,-1.2727 -0.125927,-3.789177 -0.207549,-5.592171 -0.183971,-4.063729 -0.176149,-9.774867 0.01583,-11.570012 0.182492,-1.706269 0.400798,-2.38847 0.844215,-2.63813 0.425793,-0.239734 0.62852,-0.238957 1.060152,0.0041 0.481763,0.271253 0.56367,0.496662 0.755087,2.077828 0.322525,2.664266 0.415663,3.847836 0.473734,6.019851 0.03213,1.201995 0.137537,3.920949 0.23423,6.042119 0.09667,2.121167 0.201551,5.273996 0.233025,7.006285 0.03148,1.732286 0.09294,3.250851 0.136592,3.374586 0.101823,0.288603 0.660903,0.294966 1.766146,0.0201 0.894048,-0.222343 1.161918,-0.31389 2.950588,-1.008381 1.35459,-0.525958 2.038041,-0.578188 2.601786,-0.198835 0.684943,0.460908 0.974421,1.630045 0.597896,2.414779 -0.400649,0.834983 -1.204409,1.275207 -4.024976,2.204501 -2.070851,0.68228 -3.946131,0.902141 -4.99087,0.585132 z"
      id="path1" /></g></svg>
