<?xml version="1.0" encoding="UTF-8" standalone="no"?>
<!-- Created with Inkscape (http://www.inkscape.org/) -->

<svg
   width="128.31433mm"
   height="31.95878mm"
   viewBox="0 0 128.31433 31.95878"
   version="1.1"
   id="svg1"
   xml:space="preserve"
   inkscape:version="1.4 (e7c3feb1, 2024-10-09)"
   sodipodi:docname="signature-pic.svg"
   xmlns:inkscape="http://www.inkscape.org/namespaces/inkscape"
   xmlns:sodipodi="http://sodipodi.sourceforge.net/DTD/sodipodi-0.dtd"
   xmlns="http://www.w3.org/2000/svg"
   xmlns:svg="http://www.w3.org/2000/svg"><sodipodi:namedview
     id="namedview1"
     pagecolor="#ffffff"
     bordercolor="#000000"
     borderopacity="0.25"
     inkscape:showpageshadow="2"
     inkscape:pageopacity="0.0"
     inkscape:pagecheckerboard="0"
     inkscape:deskcolor="#d1d1d1"
     inkscape:document-units="mm"
     inkscape:zoom="0.92705824"
     inkscape:cx="223.28694"
     inkscape:cy="126.745"
     inkscape:window-width="1512"
     inkscape:window-height="856"
     inkscape:window-x="0"
     inkscape:window-y="38"
     inkscape:window-maximized="0"
     inkscape:current-layer="layer1" /><defs
     id="defs1" /><g
     inkscape:label="Layer 1"
     inkscape:groupmode="layer"
     id="layer1"
     transform="translate(-9.5096481,-25.615022)"><path
      fill="currentColor" 
      stroke="currentColor"
      d="M 27.795836,56.301451 C 25.17096,53.565708 23.471771,46.609132 23.88296,40.281936 l 0.17174,-2.642647 h -0.670985 c -0.601886,0 -0.832968,0.336872 -2.243917,3.271245 -3.078956,6.403358 -5.364367,8.224391 -8.541697,6.806102 -2.272262,-1.014289 -3.057055,-3.233222 -1.968413,-5.565512 0.523353,-1.121233 2.876286,-3.44291 4.112393,-4.057778 1.279213,-0.636315 4.296094,-1.539586 5.714544,-1.71098 l 1.333121,-0.161083 1.324631,-3.740884 c 1.445672,-4.082713 2.474537,-6.06141 3.282883,-6.313593 1.134405,-0.353915 1.32786,0.52942 0.649235,2.964453 -0.341025,1.223655 -1.153454,6.004347 -1.16752,6.870191 -0.0027,0.163277 0.756196,0.426071 1.693723,0.586551 3.92956,0.672642 6.694738,1.961956 6.694738,3.121542 0,0.815582 -0.504422,0.836572 -1.405968,0.05847 -0.895417,-0.772795 -2.860699,-1.426514 -5.479133,-1.822572 L 25.87417,37.717326 v 3.923394 c 0,5.92421 0.891292,9.960347 2.868258,12.988674 0.670768,1.027483 1.036327,1.334537 1.744224,1.465082 0.643844,0.118725 0.895599,0.302026 0.895599,0.652091 0,0.414125 -0.201297,0.486944 -1.34605,0.486944 -1.206744,0 -1.438604,-0.09647 -2.240365,-0.932085 z M 16.686354,45.204135 c 1.304427,-1.402933 4.420424,-6.922723 4.090846,-7.246683 -0.258813,-0.254406 -2.888159,0.44936 -4.529468,1.212352 -1.780782,0.82782 -3.585143,2.306214 -4.168827,3.415694 -0.211497,0.402013 -0.400715,1.153887 -0.420485,1.670814 -0.04931,1.289577 1.182017,2.406648 2.65283,2.406648 0.903573,0 1.171996,-0.164874 2.375104,-1.458825 z M 24.135116,35.7701 c 0.08698,-0.31905 0.15018,-0.870141 0.140433,-1.22464 -0.01731,-0.63004 -0.02583,-0.627136 -0.378022,0.128908 -0.41626,0.893586 -0.487334,1.675822 -0.152263,1.675822 0.127433,0 0.302866,-0.26104 0.389852,-0.58009 z m 69.562517,17.789517 c -0.398981,-0.602873 -2.357826,-7.189191 -3.309195,-11.126696 -0.491012,-2.032183 -1.560518,-8.476623 -1.563571,-9.421483 -7.41e-4,-0.229403 -0.09082,-0.279205 -0.23312,-0.128909 -0.270697,0.285889 -0.882269,3.594591 -1.474911,7.979497 -1.08349,8.016652 -2.311025,11.404302 -3.913401,10.79989 -0.507024,-0.191242 -0.541942,-1.031449 -0.05454,-1.312222 0.970454,-0.559053 1.531391,-2.763954 2.667111,-10.483725 1.020686,-6.937856 2.079879,-10.476894 3.135613,-10.476894 0.636119,0 0.869781,0.779947 1.707733,5.700304 0.660676,3.879409 2.920822,13.498957 3.24695,13.819526 0.04689,0.04609 0.165394,-1.165501 0.263327,-2.69244 0.543229,-8.470086 3.10104,-14.797448 7.321001,-18.110223 1.76228,-1.383463 2.13927,-1.521151 2.39203,-0.873678 0.11622,0.297689 -0.29637,0.831729 -1.40325,1.816336 -2.728903,2.427423 -5.135164,6.884028 -6.09958,11.296968 -0.355392,1.626185 -0.547799,3.787168 -0.642779,7.219458 -0.07455,2.694203 -0.253364,5.275616 -0.397345,5.736475 -0.312794,1.001202 -1.071281,1.120288 -1.642079,0.257816 z m 8.240507,-2.077105 c -0.63879,-0.214131 -0.91801,-0.464551 -0.91801,-0.823358 0,-0.34146 0.13289,-0.473848 0.39344,-0.391907 0.7114,0.22373 2.91361,0.04512 3.29667,-0.267375 0.4469,-0.364566 0.48457,-1.990779 0.10116,-4.368195 -0.42846,-2.656872 -0.48371,-2.763037 -1.02,-1.95944 -0.68733,1.029899 -1.36079,1.426571 -2.43736,1.435604 -0.76055,0.0068 -1.07367,-0.136001 -1.410552,-0.641402 -0.873489,-1.31038 0.03955,-4.331516 1.594532,-5.276172 0.96905,-0.588695 3.06455,-0.707235 3.49008,-0.19743 0.27423,0.32853 1.48025,6.492909 1.72761,8.830304 0.33194,3.13689 -1.72198,4.697028 -4.81757,3.659371 z m 0.47,-8.500818 c 0.30879,-0.323094 0.73901,-1.082158 0.95604,-1.686814 0.33454,-0.932028 0.33902,-1.120357 0.0294,-1.237152 -0.94732,-0.357325 -2.24228,1.293552 -2.24228,2.858571 0,0.813926 0.51583,0.840762 1.25687,0.06539 z m 15.01769,6.359226 c -0.63748,-0.527266 -0.74988,-0.750227 -0.51716,-1.025855 0.21245,-0.251618 0.43435,-0.280101 0.77714,-0.09977 0.2639,0.138817 0.72362,0.252398 1.02162,0.252398 0.48069,0 0.54012,-0.152723 0.52672,-1.353548 -0.008,-0.744458 -0.0968,-1.798368 -0.19673,-2.342024 l -0.1816,-0.988456 -0.63586,0.666191 c -1.64271,1.721007 -3.42815,-0.29502 -3.85057,-4.347828 -0.13734,-1.317582 -0.0868,-1.66908 0.29429,-2.043584 0.66433,-0.653008 0.97006,-0.207564 1.2117,1.765373 0.11326,0.924729 0.42469,2.174489 0.69209,2.777226 l 0.48617,1.095897 0.42828,-0.643994 c 0.48056,-0.722591 0.58757,-2.076568 0.31649,-4.004224 -0.1404,-0.998268 -0.0925,-1.371077 0.20749,-1.615816 0.61437,-0.50119 1.21554,-0.08975 1.37387,0.94028 0.0796,0.518058 0.44048,2.276142 0.80187,3.906849 1.21441,5.47978 0.90848,7.734573 -1.04945,7.734573 -0.57892,0 -1.17764,-0.236379 -1.70636,-0.673686 z M 48.845084,46.340686 c -0.830694,-1.251807 -1.592123,-7.402008 -0.963675,-7.783791 0.547829,-0.332809 1.024179,0.361046 1.193192,1.73801 0.443936,3.616789 0.736617,4.863958 1.252264,5.336178 0.30576,0.280004 0.46557,0.658055 0.375595,0.888529 -0.236828,0.606644 -1.411141,0.493521 -1.857376,-0.178926 z m -9.14873,-1.230516 c -0.370966,-0.286825 -0.946938,-1.185974 -1.279939,-1.998097 -0.565956,-1.380257 -0.60554,-1.833184 -0.606763,-6.942465 -0.0013,-5.499356 0.116326,-6.235269 0.918898,-5.74813 0.318752,0.193474 0.419593,1.25436 0.544256,5.725738 0.164852,5.912867 0.332809,6.767709 1.587351,8.079045 0.585301,0.611798 0.682162,0.854695 0.436947,1.095731 -0.445011,0.437424 -0.826312,0.386968 -1.60075,-0.211822 z m 19.261632,-0.08604 c -1.32741,-1.38888 -0.91989,-4.159197 0.884057,-6.009814 1.260609,-1.29322 2.306503,-1.464565 3.564613,-0.583978 0.949622,0.664662 1.015863,1.873788 0.217552,3.971092 -1.09888,2.886967 -3.255275,4.098988 -4.666222,2.6227 z m 2.909297,-2.360557 c 0.812407,-1.460707 0.901237,-2.067516 0.333988,-2.281472 -0.216388,-0.08166 -0.393434,-0.335742 -0.393434,-0.564714 0,-0.558595 -0.51272,-0.358163 -1.116183,0.436332 -1.065594,1.402922 -1.064082,3.983292 0.0022,3.78216 0.252033,-0.04755 0.780068,-0.665071 1.173412,-1.372306 z m 61.709747,2.724411 c -0.92846,-0.373539 -1.50123,-1.251777 -1.64181,-2.517363 -0.0754,-0.679308 -0.29754,-1.327882 -0.49355,-1.441276 -0.5435,-0.314431 -0.42535,-1.203368 0.18965,-1.427001 0.30032,-0.109195 0.86095,-0.759308 1.24587,-1.444677 0.83921,-1.494295 2.20818,-2.376538 3.27805,-2.112593 0.86883,0.214346 1.3576,1.155475 1.1079,2.133329 -0.24636,0.964865 -2.53027,3.18602 -3.27605,3.18602 -0.52026,0 -0.56324,0.09004 -0.40006,0.837917 0.2516,1.153028 0.31727,1.224776 1.12021,1.223674 0.88709,-9.74e-4 2.24707,-0.802982 2.82004,-1.66255 0.48816,-0.732326 1.03176,-0.852874 1.25598,-0.278523 0.23469,0.601198 -2.3151,3.169407 -3.4559,3.480856 -1.10541,0.301792 -1.05686,0.301178 -1.75033,0.02222 z m 2.40637,-7.402885 c -0.30719,-0.301957 -1.25641,0.253159 -1.62237,0.948787 -0.69248,1.316286 -0.40471,1.440946 0.69115,0.299386 0.58774,-0.612227 1.00678,-1.173911 0.93122,-1.248173 z m 8.80682,7.250445 c -0.70448,-0.485025 -1.04084,-1.65651 -1.27425,-4.437944 -0.0981,-1.169848 -0.2862,-2.127006 -0.41784,-2.127006 -0.13162,0 -0.49246,0.551091 -0.80188,1.22464 -0.41896,0.912041 -0.56584,1.751137 -0.57539,3.287196 -0.0118,1.89015 -0.0586,2.068978 -0.56038,2.139449 -0.81252,0.114116 -1.07761,-0.364867 -1.78001,-3.216267 -0.7199,-2.922436 -0.64162,-4.337383 0.23997,-4.337383 0.39632,0 0.5331,0.206366 0.5981,0.902365 0.0827,0.884807 0.57146,1.76779 0.57146,1.032248 0,-0.633645 1.32449,-2.264098 2.09362,-2.577252 1.56896,-0.638801 2.14483,0.287409 2.63198,4.233157 0.15629,1.26578 0.34422,2.396953 0.41765,2.513729 0.0734,0.116776 0.42161,0.21232 0.77374,0.21232 0.46156,0 0.64024,0.14138 0.64024,0.506569 0,0.961279 -1.53482,1.347945 -2.55701,0.644179 z m -91.348719,-0.69957 c -0.946592,-1.516746 -1.106127,-2.581889 -1.235271,-8.247426 -0.114093,-5.00527 -0.08223,-5.621951 0.297841,-5.765319 1.004393,-0.37885 1.140746,0.22487 1.273962,5.640698 0.145476,5.914203 0.47252,7.579141 1.467562,7.471183 0.772097,-0.0838 1.006132,0.598937 0.422595,1.232748 -0.716641,0.778377 -1.617586,0.644101 -2.226689,-0.331884 z m 9.361061,0.666036 c -0.363306,-0.35711 -0.138512,-0.593255 1.061433,-1.114996 2.047651,-0.890341 2.7079,-1.804886 1.305552,-1.808394 -1.141408,-0.003 -2.55514,-0.552281 -2.951654,-1.147124 -0.357412,-0.536183 -0.360382,-0.711961 -0.02534,-1.500141 1.00786,-2.371033 4.631793,-3.338939 4.631793,-1.237094 0,0.805185 -0.708298,1.29323 -0.956004,0.658718 -0.0821,-0.210312 -0.296461,-0.382388 -0.476351,-0.382388 -0.388111,0 -1.71512,1.161389 -1.71512,1.501068 0,0.130116 0.692466,0.370489 1.538813,0.534166 1.829616,0.353816 2.465995,0.928119 2.348406,2.119335 -0.120941,1.225166 -1.923163,2.548731 -3.47046,2.548731 -0.613908,0 -1.194884,-0.07737 -1.291058,-0.171881 z m 14.516035,-0.342133 c -0.69793,-0.423986 -1.69511,-7.216495 -1.111475,-7.571063 0.501736,-0.304803 1.108436,0.138497 1.13494,0.829273 0.01438,0.374777 0.106829,0.965655 0.205442,1.313051 0.177142,0.624046 0.186043,0.620402 0.740487,-0.303293 1.06308,-1.771074 2.559869,-2.178192 3.275717,-0.890974 0.17209,0.309451 0.396647,1.664811 0.499015,3.011918 0.10237,1.347096 0.269911,2.708907 0.372313,3.026232 0.264544,0.819782 -0.536591,1.07714 -1.230316,0.395231 -0.420127,-0.412965 -0.561372,-1.005899 -0.699453,-2.936282 -0.09515,-1.330357 -0.29105,-2.418829 -0.43531,-2.418829 -0.42447,0 -1.165018,1.736178 -1.326725,3.110433 -0.232008,1.9717 -0.346167,2.36544 -0.727539,2.509296 -0.194653,0.07348 -0.508344,0.03966 -0.697096,-0.07503 z m 45.316093,-0.194994 c -0.22051,-0.24815 -0.55436,-0.915257 -0.74189,-1.482456 l -0.34095,-1.031273 -0.21573,0.805487 c -0.2822,1.053636 -0.83612,1.483469 -1.65226,1.282122 -0.83168,-0.205187 -1.39508,-1.277718 -1.81772,-3.460392 -0.37994,-1.962141 -0.31535,-2.365595 0.37869,-2.365595 0.3592,0 0.57118,0.296783 0.78268,1.095731 0.15953,0.602649 0.40565,1.534296 0.54693,2.070333 0.14128,0.536026 0.35537,0.914759 0.47575,0.841628 0.12039,-0.07318 0.2993,-1.033787 0.39759,-2.134781 0.23036,-2.580751 0.33694,-2.904184 0.95695,-2.904184 0.64501,0 0.91986,0.685427 1.60244,3.996194 0.29235,1.418006 0.59086,2.839229 0.66336,3.158277 0.16202,0.713092 -0.44916,0.789156 -1.03584,0.128909 z M 47.505956,36.08111 c -0.21328,-0.33921 0.34357,-1.019979 0.834318,-1.019979 0.203252,0 0.44206,0.185736 0.530683,0.412741 0.256825,0.65787 -0.98564,1.210588 -1.365001,0.607238 z"
      id="path1" /></g></svg>
